<svg width="136" height="156" viewBox="0 0 136 156" fill="none" xmlns="http://www.w3.org/2000/svg">
<path d="M68 0C105.555 0 136 30.4446 136 68C136 100.477 113.232 127.634 82.7871 134.386L71.4639 154C69.9242 156.667 66.0758 156.667 64.5361 154L53.2119 134.386C22.7675 127.634 0 100.477 0 68C0 30.4446 30.4446 0 68 0Z" fill="url(#paint0_linear_2048_80)"/>
<g clip-path="url(#clip0_2048_80)">
<path d="M65.7801 40.0724C65.9693 40.0707 65.9693 40.0707 66.1624 40.069C70.0589 40.0417 73.5005 40.3588 77.2265 41.5644C77.4007 41.6204 77.4007 41.6204 77.5784 41.6776C80.1732 42.5328 82.641 43.8467 84.8457 45.455C85.0153 45.5766 85.185 45.6982 85.3598 45.8235C91.7664 50.5539 95.5596 57.5238 96.766 65.3029C96.8846 66.2788 96.8745 67.2597 96.8804 68.2415C96.8817 68.453 96.883 68.6645 96.8843 68.8824C96.8868 69.3293 96.8884 69.7762 96.8896 70.2231C96.891 70.6762 96.8944 71.1292 96.8996 71.5822C96.9637 77.327 96.9637 77.327 95.5854 79.8728C95.5296 79.9795 95.4738 80.0862 95.4162 80.1962C93.5881 83.6039 90.7208 85.9331 87.0397 87.0795C85.3195 87.5408 83.6293 87.5111 81.8601 87.5068C81.5126 87.5077 81.1651 87.5089 80.8176 87.5102C79.8791 87.5131 78.9406 87.5129 78.0021 87.512C77.2162 87.5115 76.4303 87.5125 75.6444 87.5134C73.789 87.5157 71.9336 87.5155 70.0781 87.5136C68.1695 87.5118 66.2609 87.514 64.3523 87.5184C62.7085 87.522 61.0648 87.523 59.4211 87.5221C58.4416 87.5216 57.4621 87.5219 56.4826 87.5247C55.5609 87.5273 54.6392 87.5266 53.7175 87.5236C53.3811 87.523 53.0447 87.5234 52.7083 87.5252C50.2633 87.5366 47.9262 87.3757 45.7266 86.185C45.6199 86.1291 45.5132 86.0733 45.4033 86.0158C42.1937 84.2939 39.745 81.5402 38.6445 78.039C38.2349 76.5786 38.0841 75.2126 38.0879 73.6994C38.087 73.4921 38.0862 73.2848 38.0853 73.0713C38.0839 72.6346 38.0842 72.198 38.0858 71.7614C38.0873 71.3227 38.0862 70.8842 38.0825 70.4455C38.0144 62.3631 40.311 55.1086 45.9394 49.1835C46.0196 49.0981 46.0997 49.0126 46.1823 48.9246C51.1281 43.6827 58.4963 40.1166 65.7801 40.0724ZM48.5129 60.0752C46.0361 63.0023 45.3837 66.1908 45.6152 69.9335C45.9761 72.8724 47.6818 75.5225 49.9124 77.4057C53.6111 80.2349 57.5616 80.1973 62.0085 80.1894C62.4493 80.1895 62.89 80.19 63.3308 80.1904C64.2508 80.191 65.1707 80.1902 66.0907 80.1887C67.1471 80.1869 68.2035 80.1875 69.2599 80.1892C70.1746 80.1907 71.0894 80.1909 72.0042 80.1901C72.5472 80.1896 73.0901 80.1896 73.633 80.1906C78.4313 80.1972 82.533 79.9187 86.1628 76.409C88.6604 73.7456 89.4761 70.7167 89.429 67.1593C89.3263 63.9719 87.7391 61.1975 85.4536 59.0418C81.7446 55.9103 77.587 55.9409 72.9914 55.949C72.5506 55.949 72.1099 55.9485 71.6691 55.9481C70.7492 55.9475 69.8292 55.9483 68.9092 55.9498C67.8528 55.9516 66.7964 55.951 65.7401 55.9492C64.8253 55.9477 63.9105 55.9476 62.9957 55.9484C62.4528 55.9489 61.9098 55.9489 61.3669 55.9479C56.4339 55.9411 52.0947 56.2556 48.5129 60.0752Z" fill="white"/>
<path d="M56.9301 60.8321C57.2181 60.8303 57.2181 60.8303 57.5119 60.8285C57.722 60.8281 57.9321 60.8277 58.1486 60.8272C58.3726 60.8262 58.5966 60.8251 58.8206 60.824C59.5558 60.8206 60.2911 60.8189 61.0263 60.8173C61.28 60.8166 61.5337 60.816 61.7874 60.8153C62.9799 60.8122 64.1723 60.8099 65.3648 60.8085C66.7383 60.807 68.1116 60.8027 69.4851 60.7961C70.5485 60.7912 71.6119 60.7888 72.6753 60.7883C73.3095 60.7879 73.9437 60.7865 74.5779 60.7824C75.1755 60.7786 75.773 60.778 76.3706 60.7796C76.6918 60.7797 77.013 60.7766 77.3342 60.7734C79.2469 60.7845 80.7442 61.2989 82.2519 62.477C82.3518 62.5545 82.4517 62.6321 82.5546 62.7119C83.6401 63.6696 84.5844 65.3963 84.7122 66.8578C84.7795 69.2044 84.5496 70.9488 83.0625 72.852C82.9849 72.9519 82.9074 73.0518 82.8275 73.1547C81.9163 74.1875 80.3688 75.0179 79.0097 75.2837C78.6967 75.2993 78.3832 75.3062 78.0698 75.3075C77.7818 75.3092 77.7818 75.3092 77.488 75.311C77.1728 75.3117 77.1728 75.3117 76.8513 75.3123C76.6273 75.3134 76.4033 75.3144 76.1793 75.3156C75.4441 75.319 74.7088 75.3207 73.9736 75.3223C73.7199 75.3229 73.4662 75.3236 73.2125 75.3243C72.02 75.3274 70.8276 75.3297 69.6351 75.331C68.2616 75.3326 66.8883 75.3369 65.5148 75.3434C64.4514 75.3483 63.388 75.3507 62.3246 75.3513C61.6904 75.3516 61.0562 75.3531 60.422 75.3572C59.8244 75.361 59.2269 75.3616 58.6293 75.36C58.3081 75.3598 57.9869 75.3629 57.6657 75.3661C55.753 75.3551 54.2557 74.8407 52.748 73.6626C52.6481 73.585 52.5482 73.5075 52.4453 73.4276C51.3598 72.47 50.4155 70.7433 50.2877 69.2818C50.2204 66.9351 50.4503 65.1908 51.9375 63.2876C52.015 63.1877 52.0925 63.0878 52.1724 62.9849C53.3229 61.6807 55.2053 60.8392 56.9301 60.8321ZM56.1118 65.8034C55.4549 66.8503 55.5387 68.0977 55.666 69.2856C55.8658 70.0346 56.1824 70.4567 56.7399 70.9878C57.6204 71.3791 58.4692 71.3931 59.3742 71.0587C60.0556 70.4374 60.3972 69.7761 60.4533 68.8651C60.455 68.6 60.4532 68.3349 60.4482 68.0698C60.452 67.8714 60.452 67.8714 60.4558 67.6689C60.4497 66.7255 60.2573 66.1708 59.7187 65.395C59.1079 64.8381 58.4765 64.824 57.6816 64.8536C56.9667 64.9534 56.5638 65.2539 56.1118 65.8034ZM75.1191 65.5571C74.5863 66.3919 74.5536 67.1005 74.5618 68.0597C74.5586 68.1927 74.5554 68.3257 74.552 68.4627C74.5528 69.4124 74.7376 69.964 75.2812 70.7446C75.892 71.3015 76.5234 71.3155 77.3183 71.286C78.0332 71.1862 78.4361 70.8857 78.8881 70.3361C79.545 69.2893 79.4612 68.0418 79.3339 66.854C79.1341 66.105 78.8175 65.6828 78.26 65.1518C77.1356 64.6521 76.0464 64.6976 75.1191 65.5571Z" fill="white"/>
<path d="M100.08 41.6869C100.856 42.1075 101.267 42.5192 101.543 43.3479C101.558 43.8191 101.563 44.2862 101.561 44.7573C101.561 44.9013 101.561 45.0452 101.561 45.1936C101.561 45.6698 101.56 46.1461 101.559 46.6224C101.559 46.9525 101.558 47.2825 101.558 47.6126C101.558 48.4816 101.556 49.3507 101.554 50.2198C101.552 51.1064 101.552 51.9931 101.551 52.8798C101.549 54.6198 101.546 56.3598 101.543 58.0999C101.642 58.0988 101.741 58.0976 101.843 58.0965C102.039 58.0952 102.039 58.0952 102.239 58.0939C102.368 58.0927 102.497 58.0916 102.63 58.0905C104.464 58.1368 106.008 59.1605 107.263 60.4156C108.931 62.3324 109.123 64.3691 109.102 66.7892C109.102 67.0763 109.103 67.3634 109.103 67.6505C109.104 68.2487 109.101 68.8467 109.097 69.4448C109.091 70.207 109.092 70.969 109.095 71.7311C109.097 72.3228 109.096 72.9144 109.093 73.5061C109.092 73.7869 109.092 74.0678 109.093 74.3487C109.098 76.5913 108.799 78.329 107.379 80.1468C107.301 80.2466 107.224 80.3465 107.144 80.4494C106.002 81.7438 104.065 82.6241 102.354 82.7405C101.381 82.7691 100.409 82.7596 99.4356 82.7405C99.531 82.1546 99.694 81.6977 99.9624 81.1701C103.115 74.3268 102.01 64.355 99.4862 57.4514C98.936 56.0151 98.2548 54.629 97.5853 53.2455C97.5201 53.1109 97.455 52.9763 97.3879 52.8376C97.1719 52.4062 97.1719 52.4062 96.8207 52.0009C96.3876 51.2185 96.4275 50.5352 96.4372 49.655C96.437 49.4824 96.4367 49.3097 96.4365 49.1319C96.4368 48.7678 96.4386 48.4037 96.442 48.0397C96.4467 47.4836 96.4453 46.9278 96.4432 46.3716C96.4442 46.0172 96.4456 45.6628 96.4473 45.3084C96.4469 45.1428 96.4464 44.9771 96.4459 44.8064C96.4591 43.8067 96.5436 43.0421 97.2471 42.2708C98.1067 41.6015 99.0192 41.2817 100.08 41.6869Z" fill="white"/>
<path d="M37.0539 41.7465C37.7401 42.204 38.2165 42.7114 38.4825 43.5094C38.5028 43.7584 38.5148 44.0081 38.5215 44.2578C38.5256 44.4095 38.5298 44.5612 38.5341 44.7174C38.5479 45.4167 38.5584 46.1159 38.5659 46.8152C38.571 47.1817 38.5788 47.5482 38.5892 47.9145C38.6547 50.242 38.5924 51.8207 37.1856 53.7223C37.058 53.9482 36.9352 54.1771 36.8208 54.41C36.7732 54.5069 36.7255 54.6037 36.6764 54.7035C33.1604 62.1653 31.9835 72.3722 34.6253 80.2786C34.8407 80.8712 35.1043 81.4268 35.4214 81.9712C35.5645 82.2536 35.5645 82.2536 35.5645 82.7399C32.7148 82.7958 30.1751 82.6526 27.9555 80.6224C26.6802 79.2398 25.9798 77.525 25.9688 75.6584C25.9675 75.5336 25.9661 75.4089 25.9648 75.2803C25.9607 74.8677 25.9581 74.455 25.9557 74.0424C25.9549 73.9007 25.954 73.7591 25.9531 73.6131C25.9488 72.8623 25.9456 72.1115 25.9433 71.3607C25.9411 70.7426 25.9366 70.1246 25.93 69.5066C25.9219 68.7574 25.918 68.0084 25.9168 67.2592C25.9158 66.9754 25.9133 66.6916 25.9094 66.4079C25.8793 64.089 26.1903 62.212 27.7681 60.3929C28.9486 59.1815 30.6219 58.1211 32.3605 58.0935C32.4908 58.0942 32.621 58.0949 32.7553 58.0956C32.9524 58.0964 32.9524 58.0964 33.1535 58.0972C33.3038 58.0982 33.3038 58.0982 33.4571 58.0993C33.456 57.9166 33.4549 57.734 33.4538 57.5458C33.4439 55.8237 33.4367 54.1016 33.4319 52.3794C33.4293 51.4941 33.4259 50.6088 33.4204 49.7234C33.4151 48.8689 33.4122 48.0144 33.4109 47.1598C33.41 46.8339 33.4083 46.508 33.4057 46.1822C33.4021 45.7254 33.4016 45.2687 33.4019 44.8119C33.4001 44.6775 33.3984 44.543 33.3966 44.4045C33.4008 43.6072 33.5048 43.0668 33.9434 42.3747C34.8741 41.5138 35.8635 41.3264 37.0539 41.7465Z" fill="white"/>
<path d="M109 85.0098C109.02 85.9461 109.035 86.8823 109.045 87.8188C109.049 88.1358 109.054 88.4529 109.061 88.7699C109.12 91.4834 108.88 94.1456 107.48 96.5398C107.386 96.7091 107.386 96.7091 107.29 96.8817C106.799 97.7438 106.25 98.5289 105.596 99.2754C105.502 99.3922 105.408 99.509 105.311 99.6294C103.081 102.316 99.6313 104.091 96.1934 104.625C95.6704 104.647 95.1481 104.644 94.6248 104.641C94.4748 104.641 94.3249 104.64 94.1703 104.64C93.693 104.639 93.2157 104.637 92.7384 104.635C92.4141 104.634 92.0898 104.634 91.7654 104.633C90.9719 104.631 90.1783 104.628 89.3848 104.625C89.4112 104.484 89.4376 104.343 89.4648 104.198C89.5413 103.689 89.5655 103.22 89.5627 102.706C89.5622 102.534 89.5617 102.361 89.5611 102.184C89.5598 102.006 89.5584 101.829 89.557 101.646C89.5563 101.465 89.5555 101.284 89.5548 101.097C89.5529 100.652 89.5502 100.207 89.5469 99.7617C89.6725 99.7585 89.7981 99.7553 89.9275 99.752C94.1256 99.639 97.703 99.5293 101.057 96.6816C103.083 94.5266 103.836 92.0933 104.005 89.2043C104.018 89.0029 104.032 88.8015 104.045 88.5939C104.077 88.1017 104.108 87.6095 104.137 87.1172C104.222 87.0879 104.308 87.0586 104.396 87.0285C106.523 86.3242 106.523 86.3242 108.433 85.1826C108.676 85.0098 108.676 85.0098 109 85.0098Z" fill="white"/>
<path d="M75.3097 97.0704C75.4793 97.069 75.649 97.0676 75.8237 97.0662C76.1808 97.0643 76.5379 97.0642 76.895 97.0656C77.4362 97.0666 77.9769 97.059 78.518 97.0508C80.5079 97.039 82.1452 97.0373 83.7044 98.4229C83.9668 98.6905 84.1605 98.958 84.3593 99.2753C84.4258 99.3761 84.4922 99.4768 84.5607 99.5806C85.1845 100.712 85.2105 102.073 85.0078 103.328C84.5675 104.717 83.849 105.708 82.5865 106.424C81.5902 106.909 80.7284 106.994 79.6297 106.992C79.3752 106.994 79.3752 106.994 79.1156 106.996C78.7586 106.998 78.4015 106.998 78.0444 106.997C77.5032 106.996 76.9625 107.003 76.4214 107.012C74.4315 107.023 72.7942 107.025 71.235 105.64C70.9726 105.372 70.7788 105.104 70.58 104.787C70.5136 104.686 70.4471 104.586 70.3787 104.482C69.7549 103.35 69.7289 101.989 69.9316 100.734C70.3719 99.3451 71.0904 98.3544 72.3529 97.6384C73.3491 97.1532 74.211 97.0684 75.3097 97.0704Z" fill="white"/>
</g>
<defs>
<linearGradient id="paint0_linear_2048_80" x1="68" y1="0" x2="68" y2="156" gradientUnits="userSpaceOnUse">
<stop stop-color="#2AA9DF"/>
<stop offset="1" stop-color="#0A6183"/>
</linearGradient>
<clipPath id="clip0_2048_80">
<rect width="83" height="83" fill="white" transform="translate(26 32)"/>
</clipPath>
</defs>
</svg>
