<svg width="76" height="86" viewBox="0 0 76 86" fill="none" xmlns="http://www.w3.org/2000/svg">
<mask id="mask0_2015_6969" style="mask-type:alpha" maskUnits="userSpaceOnUse" x="0" y="0" width="77" height="86">
<path d="M69.8546 86H6.14872C2.7538 86 0.00166321 83.2498 0.00166321 79.8571V6.14286C0.00166321 2.75025 2.7538 0 6.14872 0H47.5017L76.0017 28.4805V79.8571C76.0017 83.2498 73.2495 86 69.8546 86Z" fill="url(#paint0_linear_2015_6969)"/>
</mask>
<g mask="url(#mask0_2015_6969)">
<path d="M69.8563 86H6.15039C2.75546 86 0.00332642 83.2498 0.00332642 79.8571V6.14286C0.00332642 2.75025 2.75546 0 6.15039 0H47.5033L76.0033 28.4805V79.8571C76.0033 83.2498 73.2512 86 69.8563 86Z" fill="url(#paint1_linear_2015_6969)"/>
<g opacity="0.27" filter="url(#filter0_f_2015_6969)">
<rect x="13.414" y="41.604" width="49.7353" height="23.4545" fill="#0072A2" style="mix-blend-mode:darken"/>
</g>
<mask id="path-4-outside-1_2015_6969" maskUnits="userSpaceOnUse" x="14.4593" y="43.4868" width="47" height="16" fill="black">
<rect fill="white" x="14.4593" y="43.4868" width="47" height="16"/>
<path d="M16.3212 58.4868C16.0679 58.4868 15.8545 58.4001 15.6812 58.2268C15.5079 58.0535 15.4212 57.8401 15.4212 57.5868V45.4468C15.4212 45.1935 15.5079 44.9801 15.6812 44.8068C15.8545 44.6201 16.0679 44.5268 16.3212 44.5268H20.3412C21.5412 44.5268 22.5812 44.7335 23.4612 45.1468C24.3412 45.5468 25.0745 46.0868 25.6612 46.7668C26.2479 47.4335 26.6812 48.1801 26.9612 49.0068C27.2545 49.8335 27.4012 50.6668 27.4012 51.5068C27.4012 52.3468 27.2545 53.1801 26.9612 54.0068C26.6812 54.8335 26.2479 55.5868 25.6612 56.2668C25.0745 56.9335 24.3412 57.4735 23.4612 57.8868C22.5812 58.2868 21.5412 58.4868 20.3412 58.4868H16.3212ZM17.2412 56.7868H20.1212C21.2412 56.7868 22.2079 56.5668 23.0212 56.1268C23.8479 55.6735 24.4812 55.0535 24.9212 54.2668C25.3745 53.4668 25.6012 52.5468 25.6012 51.5068C25.6012 50.4668 25.3745 49.5535 24.9212 48.7668C24.4812 47.9668 23.8479 47.3468 23.0212 46.9068C22.2079 46.4535 21.2412 46.2268 20.1212 46.2268H17.2412V56.7868ZM38.0207 58.6868C36.5941 58.6868 35.3607 58.3801 34.3207 57.7668C33.2807 57.1535 32.4741 56.3068 31.9007 55.2268C31.3274 54.1468 31.0274 52.9068 31.0007 51.5068C31.0274 50.1068 31.3274 48.8668 31.9007 47.7868C32.4741 46.7068 33.2807 45.8601 34.3207 45.2468C35.3607 44.6335 36.5941 44.3268 38.0207 44.3268C39.4474 44.3268 40.6807 44.6335 41.7207 45.2468C42.7607 45.8601 43.5674 46.7068 44.1407 47.7868C44.7141 48.8668 45.0141 50.1068 45.0407 51.5068C45.0141 52.9068 44.7141 54.1468 44.1407 55.2268C43.5674 56.3068 42.7607 57.1535 41.7207 57.7668C40.6807 58.3801 39.4474 58.6868 38.0207 58.6868ZM38.0207 56.9868C39.1274 56.9868 40.0674 56.7468 40.8407 56.2668C41.6141 55.7735 42.2007 55.1135 42.6007 54.2868C43.0141 53.4601 43.2207 52.5335 43.2207 51.5068C43.2207 50.4801 43.0141 49.5535 42.6007 48.7268C42.2007 47.9001 41.6141 47.2468 40.8407 46.7668C40.0674 46.2735 39.1274 46.0268 38.0207 46.0268C36.9141 46.0268 35.9741 46.2735 35.2007 46.7668C34.4274 47.2468 33.8341 47.9001 33.4207 48.7268C33.0207 49.5535 32.8207 50.4801 32.8207 51.5068C32.8207 52.5335 33.0207 53.4601 33.4207 54.2868C33.8341 55.1135 34.4274 55.7735 35.2007 56.2668C35.9741 56.7468 36.9141 56.9868 38.0207 56.9868ZM55.6312 58.6868C54.3112 58.6868 53.1179 58.4001 52.0512 57.8268C50.9979 57.2401 50.1645 56.4135 49.5512 55.3468C48.9379 54.2668 48.6312 52.9868 48.6312 51.5068C48.6312 50.0135 48.9379 48.7335 49.5512 47.6668C50.1645 46.6001 50.9979 45.7801 52.0512 45.2068C53.1179 44.6201 54.3112 44.3268 55.6312 44.3268C56.6179 44.3268 57.4712 44.4468 58.1912 44.6868C58.9112 44.9268 59.5779 45.2201 60.1912 45.5668C60.3245 45.6335 60.4245 45.7268 60.4912 45.8468C60.5712 45.9535 60.6179 46.1001 60.6312 46.2868C60.6445 46.5001 60.5779 46.6868 60.4312 46.8468C60.2845 47.0068 60.0845 47.0868 59.8312 47.0868C59.6979 47.0868 59.5779 47.0601 59.4712 47.0068C58.9379 46.7268 58.3912 46.5001 57.8312 46.3268C57.2712 46.1535 56.5979 46.0668 55.8112 46.0668C54.6379 46.0668 53.6512 46.3068 52.8512 46.7868C52.0512 47.2668 51.4512 47.9201 51.0512 48.7468C50.6512 49.5601 50.4512 50.4801 50.4512 51.5068C50.4512 52.5335 50.6512 53.4601 51.0512 54.2868C51.4512 55.1001 52.0512 55.7468 52.8512 56.2268C53.6512 56.7068 54.6379 56.9468 55.8112 56.9468C56.5979 56.9468 57.2712 56.8601 57.8312 56.6868C58.3912 56.5135 58.9379 56.2868 59.4712 56.0068C59.5779 55.9535 59.6979 55.9268 59.8312 55.9268C60.0845 55.9268 60.2845 56.0068 60.4312 56.1668C60.5779 56.3268 60.6445 56.5135 60.6312 56.7268C60.6179 56.9135 60.5712 57.0668 60.4912 57.1868C60.4245 57.2935 60.3245 57.3801 60.1912 57.4468C59.5779 57.7935 58.9112 58.0868 58.1912 58.3268C57.4712 58.5668 56.6179 58.6868 55.6312 58.6868Z"/>
</mask>
<path d="M16.3212 58.4868C16.0679 58.4868 15.8545 58.4001 15.6812 58.2268C15.5079 58.0535 15.4212 57.8401 15.4212 57.5868V45.4468C15.4212 45.1935 15.5079 44.9801 15.6812 44.8068C15.8545 44.6201 16.0679 44.5268 16.3212 44.5268H20.3412C21.5412 44.5268 22.5812 44.7335 23.4612 45.1468C24.3412 45.5468 25.0745 46.0868 25.6612 46.7668C26.2479 47.4335 26.6812 48.1801 26.9612 49.0068C27.2545 49.8335 27.4012 50.6668 27.4012 51.5068C27.4012 52.3468 27.2545 53.1801 26.9612 54.0068C26.6812 54.8335 26.2479 55.5868 25.6612 56.2668C25.0745 56.9335 24.3412 57.4735 23.4612 57.8868C22.5812 58.2868 21.5412 58.4868 20.3412 58.4868H16.3212ZM17.2412 56.7868H20.1212C21.2412 56.7868 22.2079 56.5668 23.0212 56.1268C23.8479 55.6735 24.4812 55.0535 24.9212 54.2668C25.3745 53.4668 25.6012 52.5468 25.6012 51.5068C25.6012 50.4668 25.3745 49.5535 24.9212 48.7668C24.4812 47.9668 23.8479 47.3468 23.0212 46.9068C22.2079 46.4535 21.2412 46.2268 20.1212 46.2268H17.2412V56.7868ZM38.0207 58.6868C36.5941 58.6868 35.3607 58.3801 34.3207 57.7668C33.2807 57.1535 32.4741 56.3068 31.9007 55.2268C31.3274 54.1468 31.0274 52.9068 31.0007 51.5068C31.0274 50.1068 31.3274 48.8668 31.9007 47.7868C32.4741 46.7068 33.2807 45.8601 34.3207 45.2468C35.3607 44.6335 36.5941 44.3268 38.0207 44.3268C39.4474 44.3268 40.6807 44.6335 41.7207 45.2468C42.7607 45.8601 43.5674 46.7068 44.1407 47.7868C44.7141 48.8668 45.0141 50.1068 45.0407 51.5068C45.0141 52.9068 44.7141 54.1468 44.1407 55.2268C43.5674 56.3068 42.7607 57.1535 41.7207 57.7668C40.6807 58.3801 39.4474 58.6868 38.0207 58.6868ZM38.0207 56.9868C39.1274 56.9868 40.0674 56.7468 40.8407 56.2668C41.6141 55.7735 42.2007 55.1135 42.6007 54.2868C43.0141 53.4601 43.2207 52.5335 43.2207 51.5068C43.2207 50.4801 43.0141 49.5535 42.6007 48.7268C42.2007 47.9001 41.6141 47.2468 40.8407 46.7668C40.0674 46.2735 39.1274 46.0268 38.0207 46.0268C36.9141 46.0268 35.9741 46.2735 35.2007 46.7668C34.4274 47.2468 33.8341 47.9001 33.4207 48.7268C33.0207 49.5535 32.8207 50.4801 32.8207 51.5068C32.8207 52.5335 33.0207 53.4601 33.4207 54.2868C33.8341 55.1135 34.4274 55.7735 35.2007 56.2668C35.9741 56.7468 36.9141 56.9868 38.0207 56.9868ZM55.6312 58.6868C54.3112 58.6868 53.1179 58.4001 52.0512 57.8268C50.9979 57.2401 50.1645 56.4135 49.5512 55.3468C48.9379 54.2668 48.6312 52.9868 48.6312 51.5068C48.6312 50.0135 48.9379 48.7335 49.5512 47.6668C50.1645 46.6001 50.9979 45.7801 52.0512 45.2068C53.1179 44.6201 54.3112 44.3268 55.6312 44.3268C56.6179 44.3268 57.4712 44.4468 58.1912 44.6868C58.9112 44.9268 59.5779 45.2201 60.1912 45.5668C60.3245 45.6335 60.4245 45.7268 60.4912 45.8468C60.5712 45.9535 60.6179 46.1001 60.6312 46.2868C60.6445 46.5001 60.5779 46.6868 60.4312 46.8468C60.2845 47.0068 60.0845 47.0868 59.8312 47.0868C59.6979 47.0868 59.5779 47.0601 59.4712 47.0068C58.9379 46.7268 58.3912 46.5001 57.8312 46.3268C57.2712 46.1535 56.5979 46.0668 55.8112 46.0668C54.6379 46.0668 53.6512 46.3068 52.8512 46.7868C52.0512 47.2668 51.4512 47.9201 51.0512 48.7468C50.6512 49.5601 50.4512 50.4801 50.4512 51.5068C50.4512 52.5335 50.6512 53.4601 51.0512 54.2868C51.4512 55.1001 52.0512 55.7468 52.8512 56.2268C53.6512 56.7068 54.6379 56.9468 55.8112 56.9468C56.5979 56.9468 57.2712 56.8601 57.8312 56.6868C58.3912 56.5135 58.9379 56.2868 59.4712 56.0068C59.5779 55.9535 59.6979 55.9268 59.8312 55.9268C60.0845 55.9268 60.2845 56.0068 60.4312 56.1668C60.5779 56.3268 60.6445 56.5135 60.6312 56.7268C60.6179 56.9135 60.5712 57.0668 60.4912 57.1868C60.4245 57.2935 60.3245 57.3801 60.1912 57.4468C59.5779 57.7935 58.9112 58.0868 58.1912 58.3268C57.4712 58.5668 56.6179 58.6868 55.6312 58.6868Z" fill="white"/>
<path d="M15.6812 58.2268L15.9022 58.0059H15.9022L15.6812 58.2268ZM15.6812 44.8068L15.9023 45.0279L15.9102 45.0194L15.6812 44.8068ZM23.4612 45.1468L23.3283 45.4297L23.3319 45.4313L23.4612 45.1468ZM25.6612 46.7668L25.4246 46.971L25.4266 46.9733L25.6612 46.7668ZM26.9612 49.0068L26.6652 49.1071L26.6667 49.1113L26.9612 49.0068ZM26.9612 54.0068L26.6667 53.9023L26.6652 53.9066L26.9612 54.0068ZM25.6612 56.2668L25.8958 56.4733L25.8978 56.4709L25.6612 56.2668ZM23.4612 57.8868L23.5905 58.1713L23.5941 58.1697L23.4612 57.8868ZM17.2412 56.7868H16.9287V57.0993H17.2412V56.7868ZM23.0212 56.1268L23.1699 56.4017L23.1715 56.4008L23.0212 56.1268ZM24.9212 54.2668L24.6493 54.1128L24.6485 54.1143L24.9212 54.2668ZM24.9212 48.7668L24.6473 48.9174L24.6505 48.9228L24.9212 48.7668ZM23.0212 46.9068L22.869 47.1798L22.8744 47.1827L23.0212 46.9068ZM17.2412 46.2268V45.9143H16.9287V46.2268H17.2412ZM16.3212 58.4868V58.1743C16.1476 58.1743 16.0147 58.1184 15.9022 58.0059L15.6812 58.2268L15.4602 58.4478C15.6943 58.6819 15.9881 58.7993 16.3212 58.7993V58.4868ZM15.6812 58.2268L15.9022 58.0059C15.7896 57.8933 15.7337 57.7604 15.7337 57.5868H15.4212H15.1087C15.1087 57.9199 15.2261 58.2137 15.4602 58.4478L15.6812 58.2268ZM15.4212 57.5868H15.7337V45.4468H15.4212H15.1087V57.5868H15.4212ZM15.4212 45.4468H15.7337C15.7337 45.2733 15.7896 45.1404 15.9022 45.0278L15.6812 44.8068L15.4602 44.5859C15.2261 44.8199 15.1087 45.1137 15.1087 45.4468H15.4212ZM15.6812 44.8068L15.9102 45.0194C16.0248 44.8961 16.1553 44.8393 16.3212 44.8393V44.5268V44.2143C15.9804 44.2143 15.6843 44.3442 15.4522 44.5942L15.6812 44.8068ZM16.3212 44.5268V44.8393H20.3412V44.5268V44.2143H16.3212V44.5268ZM20.3412 44.5268V44.8393C21.5058 44.8393 22.4985 45.0399 23.3284 45.4297L23.4612 45.1468L23.5941 44.864C22.6639 44.4271 21.5766 44.2143 20.3412 44.2143V44.5268ZM23.4612 45.1468L23.3319 45.4313C24.1739 45.814 24.8697 46.3277 25.4246 46.9709L25.6612 46.7668L25.8978 46.5627C25.2794 45.8459 24.5085 45.2796 23.5905 44.8623L23.4612 45.1468ZM25.6612 46.7668L25.4266 46.9733C25.9865 47.6095 26.3987 48.3202 26.6652 49.1071L26.9612 49.0068L27.2572 48.9066C26.9637 48.0401 26.5092 47.2575 25.8958 46.5604L25.6612 46.7668ZM26.9612 49.0068L26.6667 49.1113C26.9487 49.9059 27.0887 50.704 27.0887 51.5068H27.4012H27.7137C27.7137 50.6297 27.5604 49.761 27.2557 48.9023L26.9612 49.0068ZM27.4012 51.5068H27.0887C27.0887 52.3097 26.9487 53.1077 26.6667 53.9023L26.9612 54.0068L27.2557 54.1113C27.5604 53.2526 27.7137 52.384 27.7137 51.5068H27.4012ZM26.9612 54.0068L26.6652 53.9066C26.3985 54.694 25.9858 55.4123 25.4246 56.0627L25.6612 56.2668L25.8978 56.4709C26.51 55.7614 26.9639 54.973 27.2572 54.1071L26.9612 54.0068ZM25.6612 56.2668L25.4266 56.0604C24.8708 56.6919 24.1733 57.2071 23.3284 57.604L23.4612 57.8868L23.5941 58.1697C24.5091 57.7398 25.2782 57.175 25.8958 56.4733L25.6612 56.2668ZM23.4612 57.8868L23.3319 57.6023C22.5011 57.98 21.5071 58.1743 20.3412 58.1743V58.4868V58.7993C21.5753 58.7993 22.6613 58.5936 23.5905 58.1713L23.4612 57.8868ZM20.3412 58.4868V58.1743H16.3212V58.4868V58.7993H20.3412V58.4868ZM17.2412 56.7868V57.0993H20.1212V56.7868V56.4743H17.2412V56.7868ZM20.1212 56.7868V57.0993C21.2822 57.0993 22.3022 56.8711 23.1699 56.4017L23.0212 56.1268L22.8725 55.852C22.1135 56.2626 21.2002 56.4743 20.1212 56.4743V56.7868ZM23.0212 56.1268L23.1715 56.4008C24.0471 55.9206 24.724 55.2596 25.1939 54.4194L24.9212 54.2668L24.6485 54.1143C24.2385 54.8474 23.6487 55.4263 22.8709 55.8528L23.0212 56.1268ZM24.9212 54.2668L25.1931 54.4209C25.6764 53.568 25.9137 52.5936 25.9137 51.5068H25.6012H25.2887C25.2887 52.5 25.0727 53.3656 24.6493 54.1128L24.9212 54.2668ZM25.6012 51.5068H25.9137C25.9137 50.4201 25.6764 49.4515 25.192 48.6108L24.9212 48.7668L24.6505 48.9228C25.0727 49.6555 25.2887 50.5135 25.2887 51.5068H25.6012ZM24.9212 48.7668L25.195 48.6162C24.725 47.7616 24.0468 47.0987 23.168 46.631L23.0212 46.9068L22.8744 47.1827C23.6489 47.5949 24.2374 48.172 24.6474 48.9174L24.9212 48.7668ZM23.0212 46.9068L23.1733 46.6339C22.3049 46.1498 21.2837 45.9143 20.1212 45.9143V46.2268V46.5393C21.1987 46.5393 22.1108 46.7571 22.8691 47.1798L23.0212 46.9068ZM20.1212 46.2268V45.9143H17.2412V46.2268V46.5393H20.1212V46.2268ZM17.2412 46.2268H16.9287V56.7868H17.2412H17.5537V46.2268H17.2412ZM34.3207 57.7668L34.4795 57.4977L34.3207 57.7668ZM31.9007 55.2268L31.6247 55.3733L31.9007 55.2268ZM31.0007 51.5068L30.6881 51.5009L30.6883 51.5128L31.0007 51.5068ZM31.9007 47.7868L32.1767 47.9333L31.9007 47.7868ZM34.3207 45.2468L34.162 44.9776L34.3207 45.2468ZM41.7207 45.2468L41.8795 44.9776L41.7207 45.2468ZM44.1407 47.7868L43.8647 47.9333V47.9333L44.1407 47.7868ZM45.0407 51.5068L45.3534 51.5128L45.3532 51.5009L45.0407 51.5068ZM44.1407 55.2268L43.8647 55.0803L44.1407 55.2268ZM41.7207 57.7668L41.562 57.4977L41.7207 57.7668ZM40.8407 56.2668L41.0055 56.5323L41.0088 56.5303L40.8407 56.2668ZM42.6007 54.2868L42.3212 54.1471L42.3194 54.1507L42.6007 54.2868ZM42.6007 48.7268L42.3194 48.8629L42.3212 48.8666L42.6007 48.7268ZM40.8407 46.7668L40.6727 47.0303L40.6759 47.0323L40.8407 46.7668ZM35.2007 46.7668L35.3655 47.0323L35.3688 47.0303L35.2007 46.7668ZM33.4207 48.7268L33.1412 48.5871L33.1394 48.5907L33.4207 48.7268ZM33.4207 54.2868L33.1394 54.4229L33.1412 54.4266L33.4207 54.2868ZM35.2007 56.2668L35.0327 56.5303L35.0359 56.5323L35.2007 56.2668ZM38.0207 58.6868V58.3743C36.6397 58.3743 35.4633 58.0778 34.4795 57.4977L34.3207 57.7668L34.162 58.036C35.2582 58.6825 36.5485 58.9993 38.0207 58.9993V58.6868ZM34.3207 57.7668L34.4795 57.4977C33.4898 56.914 32.7234 56.1101 32.1767 55.0803L31.9007 55.2268L31.6247 55.3733C32.2247 56.5036 33.0717 57.393 34.162 58.036L34.3207 57.7668ZM31.9007 55.2268L32.1767 55.0803C31.6296 54.0496 31.339 52.859 31.3132 51.5009L31.0007 51.5068L30.6883 51.5128C30.7158 52.9547 31.0252 54.2441 31.6247 55.3733L31.9007 55.2268ZM31.0007 51.5068L31.3132 51.5128C31.339 50.1547 31.6296 48.9641 32.1767 47.9333L31.9007 47.7868L31.6247 47.6403C31.0252 48.7695 30.7158 50.059 30.6883 51.5009L31.0007 51.5068ZM31.9007 47.7868L32.1767 47.9333C32.7234 46.9036 33.4898 46.0996 34.4795 45.516L34.3207 45.2468L34.162 44.9776C33.0717 45.6207 32.2247 46.5101 31.6247 47.6403L31.9007 47.7868ZM34.3207 45.2468L34.4795 45.516C35.4633 44.9358 36.6397 44.6393 38.0207 44.6393V44.3268V44.0143C36.5485 44.0143 35.2582 44.3312 34.162 44.9776L34.3207 45.2468ZM38.0207 44.3268V44.6393C39.4018 44.6393 40.5782 44.9358 41.562 45.516L41.7207 45.2468L41.8795 44.9776C40.7833 44.3312 39.493 44.0143 38.0207 44.0143V44.3268ZM41.7207 45.2468L41.562 45.516C42.5517 46.0996 43.3181 46.9036 43.8647 47.9333L44.1407 47.7868L44.4167 47.6403C43.8167 46.5101 42.9698 45.6207 41.8795 44.9776L41.7207 45.2468ZM44.1407 47.7868L43.8647 47.9333C44.4119 48.9641 44.7024 50.1547 44.7283 51.5128L45.0407 51.5068L45.3532 51.5009C45.3257 50.059 45.0162 48.7695 44.4167 47.6403L44.1407 47.7868ZM45.0407 51.5068L44.7283 51.5009C44.7024 52.859 44.4119 54.0496 43.8647 55.0803L44.1407 55.2268L44.4167 55.3733C45.0162 54.2441 45.3257 52.9547 45.3532 51.5128L45.0407 51.5068ZM44.1407 55.2268L43.8647 55.0803C43.3181 56.1101 42.5517 56.914 41.562 57.4977L41.7207 57.7668L41.8795 58.036C42.9698 57.393 43.8167 56.5036 44.4167 55.3733L44.1407 55.2268ZM41.7207 57.7668L41.562 57.4977C40.5782 58.0778 39.4018 58.3743 38.0207 58.3743V58.6868V58.9993C39.493 58.9993 40.7833 58.6825 41.8795 58.036L41.7207 57.7668ZM38.0207 56.9868V57.2993C39.173 57.2993 40.173 57.0491 41.0055 56.5323L40.8407 56.2668L40.6759 56.0013C39.9618 56.4446 39.0818 56.6743 38.0207 56.6743V56.9868ZM40.8407 56.2668L41.0088 56.5303C41.831 56.0058 42.4568 55.3016 42.882 54.4229L42.6007 54.2868L42.3194 54.1507C41.9446 54.9253 41.3971 55.5412 40.6727 56.0034L40.8407 56.2668ZM42.6007 54.2868L42.8802 54.4266C43.3176 53.5519 43.5332 52.5766 43.5332 51.5068H43.2207H42.9082C42.9082 52.4904 42.7106 53.3684 42.3212 54.1471L42.6007 54.2868ZM43.2207 51.5068H43.5332C43.5332 50.4371 43.3176 49.4617 42.8802 48.5871L42.6007 48.7268L42.3212 48.8666C42.7106 49.6452 42.9082 50.5232 42.9082 51.5068H43.2207ZM42.6007 48.7268L42.882 48.5907C42.4565 47.7113 41.8296 47.0128 41.0055 46.5013L40.8407 46.7668L40.6759 47.0323C41.3985 47.4808 41.945 48.089 42.3194 48.8629L42.6007 48.7268ZM40.8407 46.7668L41.0088 46.5034C40.1757 45.9719 39.1745 45.7143 38.0207 45.7143V46.0268V46.3393C39.0803 46.3393 39.9591 46.575 40.6727 47.0303L40.8407 46.7668ZM38.0207 46.0268V45.7143C36.8669 45.7143 35.8657 45.9719 35.0327 46.5034L35.2007 46.7668L35.3688 47.0303C36.0824 46.575 36.9612 46.3393 38.0207 46.3393V46.0268ZM35.2007 46.7668L35.0359 46.5013C34.2127 47.0123 33.58 47.7095 33.1412 48.5871L33.4207 48.7268L33.7002 48.8666C34.0881 48.0908 34.6421 47.4813 35.3655 47.0323L35.2007 46.7668ZM33.4207 48.7268L33.1394 48.5907C32.7166 49.4646 32.5082 50.4386 32.5082 51.5068H32.8207H33.1332C33.1332 50.5217 33.3249 49.6424 33.702 48.8629L33.4207 48.7268ZM32.8207 51.5068H32.5082C32.5082 52.575 32.7166 53.549 33.1394 54.4229L33.4207 54.2868L33.702 54.1507C33.3249 53.3713 33.1332 52.4919 33.1332 51.5068H32.8207ZM33.4207 54.2868L33.1412 54.4266C33.5796 55.3034 34.2113 56.0063 35.0327 56.5303L35.2007 56.2668L35.3688 56.0034C34.6435 55.5407 34.0885 54.9236 33.7002 54.1471L33.4207 54.2868ZM35.2007 56.2668L35.0359 56.5323C35.8685 57.0491 36.8684 57.2993 38.0207 57.2993V56.9868V56.6743C36.9597 56.6743 36.0797 56.4446 35.3655 56.0013L35.2007 56.2668ZM52.0512 57.8268L51.8991 58.0998L51.9033 58.1021L52.0512 57.8268ZM49.5512 55.3468L49.2795 55.5011L49.2803 55.5026L49.5512 55.3468ZM49.5512 47.6668L49.8221 47.8226L49.5512 47.6668ZM52.0512 45.2068L52.2006 45.4813L52.2018 45.4806L52.0512 45.2068ZM58.1912 44.6868L58.29 44.3904V44.3904L58.1912 44.6868ZM60.1912 45.5668L60.0374 45.8389L60.0444 45.8428L60.0515 45.8463L60.1912 45.5668ZM60.4912 45.8468L60.218 45.9986L60.2284 46.0172L60.2412 46.0343L60.4912 45.8468ZM60.6312 46.2868L60.9431 46.2673L60.9429 46.2646L60.6312 46.2868ZM60.4312 46.8468L60.6616 47.058V47.058L60.4312 46.8468ZM59.4712 47.0068L59.3259 47.2835L59.3315 47.2863L59.4712 47.0068ZM57.8312 46.3268L57.9236 46.0283V46.0283L57.8312 46.3268ZM52.8512 46.7868L52.6904 46.5189V46.5189L52.8512 46.7868ZM51.0512 48.7468L51.3316 48.8847L51.3325 48.8829L51.0512 48.7468ZM51.0512 54.2868L50.7699 54.4229L50.7708 54.4247L51.0512 54.2868ZM52.8512 56.2268L52.6904 56.4948L52.8512 56.2268ZM57.8312 56.6868L57.9236 56.9853L57.8312 56.6868ZM59.4712 56.0068L59.3314 55.7273L59.326 55.7301L59.4712 56.0068ZM60.4312 56.1668L60.6616 55.9557L60.4312 56.1668ZM60.6312 56.7268L60.9429 56.7491L60.9431 56.7463L60.6312 56.7268ZM60.4912 57.1868L60.2311 57.0134L60.2262 57.0212L60.4912 57.1868ZM60.1912 57.4468L60.0515 57.1673L60.0444 57.1709L60.0374 57.1748L60.1912 57.4468ZM58.1912 58.3268L58.29 58.6233L58.1912 58.3268ZM55.6312 58.6868V58.3743C54.3581 58.3743 53.2163 58.0983 52.1992 57.5516L52.0512 57.8268L51.9033 58.1021C53.0194 58.702 54.2643 58.9993 55.6312 58.9993V58.6868ZM52.0512 57.8268L52.2033 57.5538C51.2005 56.9953 50.4078 56.2096 49.8221 55.1911L49.5512 55.3468L49.2803 55.5026C49.9213 56.6173 50.7952 57.485 51.8992 58.0998L52.0512 57.8268ZM49.5512 55.3468L49.8229 55.1925C49.241 54.1678 48.9437 52.9431 48.9437 51.5068H48.6312H48.3187C48.3187 53.0305 48.6347 54.3658 49.2795 55.5011L49.5512 55.3468ZM48.6312 51.5068H48.9437C48.9437 50.0565 49.2413 48.8327 49.8221 47.8226L49.5512 47.6668L49.2803 47.5111C48.6345 48.6343 48.3187 49.9705 48.3187 51.5068H48.6312ZM49.5512 47.6668L49.8221 47.8226C50.4075 46.8046 51.1993 46.0263 52.2006 45.4813L52.0512 45.2068L51.9018 44.9324C50.7964 45.534 49.9216 46.3957 49.2803 47.5111L49.5512 47.6668ZM52.0512 45.2068L52.2018 45.4806C53.2185 44.9214 54.3593 44.6393 55.6312 44.6393V44.3268V44.0143C54.2631 44.0143 53.0173 44.3189 51.9006 44.933L52.0512 45.2068ZM55.6312 44.3268V44.6393C56.5938 44.6393 57.4122 44.7565 58.0924 44.9833L58.1912 44.6868L58.29 44.3904C57.5302 44.1371 56.6419 44.0143 55.6312 44.0143V44.3268ZM58.1912 44.6868L58.0924 44.9833C58.7948 45.2174 59.4429 45.5028 60.0374 45.8389L60.1912 45.5668L60.345 45.2948C59.7129 44.9375 59.0276 44.6362 58.29 44.3904L58.1912 44.6868ZM60.1912 45.5668L60.0515 45.8463C60.1335 45.8874 60.1846 45.9384 60.218 45.9986L60.4912 45.8468L60.7644 45.6951C60.6645 45.5152 60.5155 45.3796 60.331 45.2873L60.1912 45.5668ZM60.4912 45.8468L60.2412 46.0343C60.2734 46.0773 60.3088 46.1591 60.3195 46.3091L60.6312 46.2868L60.9429 46.2646C60.9269 46.0412 60.869 45.8297 60.7412 45.6593L60.4912 45.8468ZM60.6312 46.2868L60.3193 46.3063C60.3273 46.4334 60.2911 46.5372 60.2009 46.6357L60.4312 46.8468L60.6616 47.058C60.8646 46.8365 60.9618 46.5669 60.9431 46.2673L60.6312 46.2868ZM60.4312 46.8468L60.2009 46.6357C60.1234 46.7202 60.013 46.7743 59.8312 46.7743V47.0868V47.3993C60.1561 47.3993 60.4457 47.2935 60.6616 47.058L60.4312 46.8468ZM59.8312 47.0868V46.7743C59.7406 46.7743 59.6693 46.7565 59.611 46.7273L59.4712 47.0068L59.3315 47.2863C59.4864 47.3638 59.6551 47.3993 59.8312 47.3993V47.0868ZM59.4712 47.0068L59.6165 46.7301C59.0667 46.4415 58.5023 46.2074 57.9236 46.0283L57.8312 46.3268L57.7388 46.6253C58.2801 46.7929 58.8091 47.0121 59.326 47.2835L59.4712 47.0068ZM57.8312 46.3268L57.9236 46.0283C57.3254 45.8432 56.6192 45.7543 55.8112 45.7543V46.0668V46.3793C56.5765 46.3793 57.217 46.4638 57.7388 46.6253L57.8312 46.3268ZM55.8112 46.0668V45.7543C54.5957 45.7543 53.55 46.0031 52.6904 46.5189L52.8512 46.7868L53.012 47.0548C53.7524 46.6105 54.6801 46.3793 55.8112 46.3793V46.0668ZM52.8512 46.7868L52.6904 46.5189C51.8392 47.0296 51.1968 47.7284 50.7699 48.6107L51.0512 48.7468L51.3325 48.8829C51.7056 48.1119 52.2632 47.504 53.012 47.0548L52.8512 46.7868ZM51.0512 48.7468L50.7708 48.6089C50.347 49.4705 50.1387 50.4387 50.1387 51.5068H50.4512H50.7637C50.7637 50.5216 50.9554 49.6498 51.3316 48.8847L51.0512 48.7468ZM50.4512 51.5068H50.1387C50.1387 52.575 50.3471 53.549 50.7699 54.4229L51.0512 54.2868L51.3325 54.1507C50.9553 53.3713 50.7637 52.4919 50.7637 51.5068H50.4512ZM51.0512 54.2868L50.7708 54.4247C51.1981 55.2937 51.8405 55.9848 52.6904 56.4948L52.8512 56.2268L53.012 55.9589C52.2619 55.5088 51.7043 54.9066 51.3316 54.1489L51.0512 54.2868ZM52.8512 56.2268L52.6904 56.4948C53.55 57.0105 54.5957 57.2593 55.8112 57.2593V56.9468V56.6343C54.6801 56.6343 53.7524 56.4031 53.012 55.9589L52.8512 56.2268ZM55.8112 56.9468V57.2593C56.6192 57.2593 57.3254 57.1705 57.9236 56.9853L57.8312 56.6868L57.7388 56.3883C57.217 56.5498 56.5765 56.6343 55.8112 56.6343V56.9468ZM57.8312 56.6868L57.9236 56.9853C58.5023 56.8062 59.0667 56.5721 59.6165 56.2835L59.4712 56.0068L59.326 55.7301C58.8091 56.0015 58.2801 56.2208 57.7388 56.3883L57.8312 56.6868ZM59.4712 56.0068L59.611 56.2863C59.6693 56.2571 59.7406 56.2393 59.8312 56.2393V55.9268V55.6143C59.6551 55.6143 59.4864 55.6498 59.3315 55.7273L59.4712 56.0068ZM59.8312 55.9268V56.2393C60.013 56.2393 60.1234 56.2935 60.2009 56.378L60.4312 56.1668L60.6616 55.9557C60.4457 55.7202 60.1561 55.6143 59.8312 55.6143V55.9268ZM60.4312 56.1668L60.2009 56.378C60.2911 56.4765 60.3273 56.5802 60.3193 56.7073L60.6312 56.7268L60.9431 56.7463C60.9618 56.4467 60.8646 56.1772 60.6616 55.9557L60.4312 56.1668ZM60.6312 56.7268L60.3195 56.7046C60.3089 56.8529 60.2735 56.95 60.2312 57.0135L60.4912 57.1868L60.7512 57.3602C60.8689 57.1837 60.9268 56.9741 60.9429 56.7491L60.6312 56.7268ZM60.4912 57.1868L60.2262 57.0212C60.1953 57.0707 60.143 57.1216 60.0515 57.1673L60.1912 57.4468L60.331 57.7263C60.5061 57.6387 60.6538 57.5162 60.7562 57.3524L60.4912 57.1868ZM60.1912 57.4468L60.0374 57.1748C59.4429 57.5108 58.7948 57.7962 58.0924 58.0304L58.1912 58.3268L58.29 58.6233C59.0276 58.3774 59.7129 58.0761 60.345 57.7189L60.1912 57.4468ZM58.1912 58.3268L58.0924 58.0304C57.4122 58.2571 56.5938 58.3743 55.6312 58.3743V58.6868V58.9993C56.6419 58.9993 57.5302 58.8765 58.29 58.6233L58.1912 58.3268Z" fill="white" mask="url(#path-4-outside-1_2015_6969)"/>
<g filter="url(#filter1_d_2015_6969)">
<path d="M76.0044 28.4805H50.9417C49.0433 28.4805 47.5044 26.9416 47.5044 25.0432V0L76.0044 28.4805Z" fill="url(#paint2_linear_2015_6969)"/>
</g>
</g>
<defs>
<filter id="filter0_f_2015_6969" x="7.32051" y="35.5105" width="61.9223" height="35.6416" filterUnits="userSpaceOnUse" color-interpolation-filters="sRGB">
<feFlood flood-opacity="0" result="BackgroundImageFix"/>
<feBlend mode="normal" in="SourceGraphic" in2="BackgroundImageFix" result="shape"/>
<feGaussianBlur stdDeviation="3.04675" result="effect1_foregroundBlur_2015_6969"/>
</filter>
<filter id="filter1_d_2015_6969" x="43.9108" y="-3.74985" width="36.3122" height="36.2926" filterUnits="userSpaceOnUse" color-interpolation-filters="sRGB">
<feFlood flood-opacity="0" result="BackgroundImageFix"/>
<feColorMatrix in="SourceAlpha" type="matrix" values="0 0 0 0 0 0 0 0 0 0 0 0 0 0 0 0 0 0 127 0" result="hardAlpha"/>
<feOffset dx="0.312487" dy="0.156244"/>
<feGaussianBlur stdDeviation="1.95305"/>
<feColorMatrix type="matrix" values="0 0 0 0 0 0 0 0 0 0 0 0 0 0 0 0 0 0 0.33 0"/>
<feBlend mode="normal" in2="BackgroundImageFix" result="effect1_dropShadow_2015_6969"/>
<feBlend mode="normal" in="SourceGraphic" in2="effect1_dropShadow_2015_6969" result="shape"/>
</filter>
<linearGradient id="paint0_linear_2015_6969" x1="38.0017" y1="0" x2="38.0017" y2="86" gradientUnits="userSpaceOnUse">
<stop stop-color="#FF7979"/>
<stop offset="1" stop-color="#E85555"/>
</linearGradient>
<linearGradient id="paint1_linear_2015_6969" x1="38.0033" y1="0" x2="38.0033" y2="86" gradientUnits="userSpaceOnUse">
<stop stop-color="#6ABDF8"/>
<stop offset="1" stop-color="#008BD6"/>
</linearGradient>
<linearGradient id="paint2_linear_2015_6969" x1="61.7544" y1="0" x2="61.7544" y2="28.4805" gradientUnits="userSpaceOnUse">
<stop stop-color="#009FE3"/>
<stop offset="1" stop-color="#0087C1"/>
</linearGradient>
</defs>
</svg>
