<svg width="193" height="108" viewBox="0 0 193 108" fill="none" xmlns="http://www.w3.org/2000/svg">
<g opacity="0.8">
<path d="M2.69623 44.4874H6.74058V34.3765H10.4058L10.7849 30.9009H6.74058V29.1631C6.74058 28.6365 6.82483 28.2678 6.99335 28.0572C7.16186 27.8466 7.56911 27.7412 8.21508 27.7412H10.7849V24.2656H7.0776C5.39246 24.2656 4.24095 24.6474 3.62306 25.411C3.00517 26.1482 2.69623 27.2936 2.69623 28.8471V30.9009H0V34.3765H2.69623V44.4874Z" fill="white"/>
</g>
<g filter="url(#filter0_d_2015_8712)">
<rect x="90.3242" width="67.4058" height="67.4058" rx="33.7029" fill="url(#paint0_linear_2015_8712)"/>
</g>
<path d="M128.409 22.918H118.298C115.506 22.918 113.243 25.1814 113.243 27.9734V38.0843C113.243 40.8763 115.506 43.1397 118.298 43.1397H128.409C131.201 43.1397 133.464 40.8763 133.464 38.0843V27.9734C133.464 25.1814 131.201 22.918 128.409 22.918Z" stroke="white" stroke-width="1.5" stroke-linecap="round" stroke-linejoin="round"/>
<path d="M127.399 32.3915C127.524 33.233 127.38 34.0924 126.988 34.8475C126.596 35.6026 125.977 36.2149 125.217 36.5973C124.457 36.9798 123.596 37.1129 122.756 36.9778C121.916 36.8426 121.14 36.4461 120.539 35.8446C119.937 35.243 119.541 34.4672 119.405 33.6273C119.27 32.7874 119.403 31.9263 119.786 31.1665C120.168 30.4066 120.781 29.7867 121.536 29.3949C122.291 29.0031 123.15 28.8594 123.992 28.9842C124.85 29.1115 125.645 29.5114 126.258 30.125C126.872 30.7386 127.272 31.5332 127.399 32.3915Z" stroke="white" stroke-width="1.5" stroke-linecap="round" stroke-linejoin="round"/>
<path d="M128.912 27.4668H128.925" stroke="white" stroke-width="1.5" stroke-linecap="round" stroke-linejoin="round"/>
<path opacity="0.8" d="M175.297 30.2877H179.251V43.1398H175.297V30.2877ZM187.369 30.2877C187.175 30.2877 186.98 30.2999 186.786 30.3242C186.62 30.3486 186.453 30.3851 186.286 30.4338C186.12 30.4825 185.981 30.5311 185.87 30.5798C185.759 30.6042 185.62 30.665 185.454 30.7624C185.287 30.8354 185.176 30.8841 185.121 30.9084C185.093 30.9328 184.996 31.0058 184.83 31.1275C184.663 31.2492 184.58 31.31 184.58 31.31V30.2877H180.625V43.1398H184.58V35.0342C184.58 35.0099 184.58 34.9612 184.58 34.8882C184.58 34.8151 184.607 34.6813 184.663 34.4865C184.746 34.2918 184.843 34.1336 184.954 34.0119C185.093 33.8658 185.301 33.732 185.579 33.6103C185.884 33.4886 186.231 33.4277 186.62 33.4277C187.286 33.4277 187.771 33.5738 188.077 33.8658C188.41 34.1579 188.576 34.5474 188.576 35.0342V43.1398H192.781V35.1803C192.781 34.3283 192.628 33.5981 192.323 32.9896C192.017 32.3567 191.657 31.8821 191.24 31.5656C190.852 31.2249 190.38 30.9571 189.825 30.7624C189.298 30.5433 188.84 30.4094 188.451 30.3607C188.09 30.3121 187.73 30.2877 187.369 30.2877ZM175.838 26.1254C175.449 26.4662 175.255 26.88 175.255 27.3668C175.255 27.8536 175.449 28.2674 175.838 28.6082C176.226 28.949 176.698 29.1194 177.253 29.1194C177.808 29.1194 178.28 28.949 178.669 28.6082C179.057 28.2674 179.251 27.8536 179.251 27.3668C179.251 26.88 179.057 26.4662 178.669 26.1254C178.28 25.7846 177.808 25.6143 177.253 25.6143C176.698 25.6143 176.226 25.7846 175.838 26.1254Z" fill="white"/>
<g opacity="0.8">
<path d="M70.8972 25.9287C70.0809 26.4003 69.1989 26.7278 68.251 26.9112C67.4347 26.0466 66.421 25.6143 65.2098 25.6143C64.0776 25.6143 63.1034 26.0204 62.2872 26.8326C61.4709 27.6449 61.0628 28.6143 61.0628 29.741C61.0628 30.0554 61.1023 30.3698 61.1813 30.6842C59.4961 30.6056 57.9031 30.1864 56.4023 29.4265C54.9278 28.6667 53.6771 27.6449 52.6502 26.361C52.2553 26.9898 52.0578 27.6842 52.0578 28.444C52.0578 29.9113 52.6766 31.051 53.9141 31.8632C53.2558 31.8632 52.6371 31.6929 52.0578 31.3523V31.4309C52.0578 32.4004 52.3606 33.265 52.9662 34.0248C53.5981 34.7847 54.4012 35.2694 55.3754 35.479C55.0068 35.5576 54.6382 35.5969 54.2696 35.5969C54.0062 35.5969 53.7429 35.5707 53.4796 35.5183C53.7693 36.3568 54.2564 37.0511 54.941 37.6013C55.6519 38.1253 56.455 38.3874 57.3502 38.3874C55.8494 39.5664 54.1379 40.1559 52.2158 40.1559C51.8998 40.1559 51.5707 40.1428 51.2284 40.1166C53.1768 41.3481 55.2964 41.9638 57.5872 41.9638C59.4303 41.9638 61.1154 41.6101 62.6426 40.9027C64.1698 40.1952 65.4073 39.2782 66.3552 38.1515C67.3294 36.9987 68.0798 35.741 68.6064 34.3786C69.133 32.9899 69.3964 31.6012 69.3964 30.2126C69.3964 30.0292 69.3964 29.8589 69.3964 29.7016C70.2126 29.099 70.8972 28.3785 71.4501 27.54C70.6865 27.8807 69.8966 28.1034 69.0804 28.2082C69.9756 27.658 70.5812 26.8981 70.8972 25.9287Z" fill="white"/>
</g>
<defs>
<filter id="filter0_d_2015_8712" x="70.3242" y="0" width="107.406" height="107.406" filterUnits="userSpaceOnUse" color-interpolation-filters="sRGB">
<feFlood flood-opacity="0" result="BackgroundImageFix"/>
<feColorMatrix in="SourceAlpha" type="matrix" values="0 0 0 0 0 0 0 0 0 0 0 0 0 0 0 0 0 0 127 0" result="hardAlpha"/>
<feOffset dy="20"/>
<feGaussianBlur stdDeviation="10"/>
<feColorMatrix type="matrix" values="0 0 0 0 0.0349479 0 0 0 0 0.044146 0 0 0 0 0.254167 0 0 0 0.1 0"/>
<feBlend mode="normal" in2="BackgroundImageFix" result="effect1_dropShadow_2015_8712"/>
<feBlend mode="normal" in="SourceGraphic" in2="effect1_dropShadow_2015_8712" result="shape"/>
</filter>
<linearGradient id="paint0_linear_2015_8712" x1="152.939" y1="4.27088" x2="94.1209" y2="62.9131" gradientUnits="userSpaceOnUse">
<stop stop-color="#8000FF"/>
<stop offset="0.544134" stop-color="#D50087"/>
<stop offset="1" stop-color="#FFD600"/>
</linearGradient>
</defs>
</svg>
