<svg width="320" height="793" viewBox="0 0 320 793" fill="none" xmlns="http://www.w3.org/2000/svg">
<g opacity="0.62">
<path opacity="0.0344828" d="M474.524 452.582C410.058 534.194 344.511 601.618 290.672 644.658C263.744 666.185 239.805 681.564 220.436 689.587C210.751 693.599 202.275 695.743 195.18 695.936C188.097 696.13 182.48 694.379 178.36 690.707C174.24 687.034 171.641 681.462 170.59 674.018C169.538 666.563 170.054 657.324 172.092 646.495C176.167 624.839 186.266 597.125 201.547 565.216C232.1 501.419 283.225 421.14 347.691 339.528C412.156 257.917 477.703 190.493 531.541 147.453C558.47 125.926 582.409 110.548 601.778 102.525C611.464 98.5127 619.939 96.368 627.034 96.1745C634.117 95.9814 639.734 97.7326 643.854 101.405C647.974 105.077 650.572 110.649 651.623 118.093C652.676 125.548 652.16 134.788 650.123 145.616C646.048 167.273 635.948 194.986 620.667 226.895C590.114 290.692 538.99 370.97 474.524 452.582Z" stroke="#464667" stroke-width="2.8023"/>
<path opacity="0.0689655" d="M466.75 458.245C395.834 533.577 325.006 594.674 267.842 632.565C239.251 651.517 214.142 664.619 194.19 670.818C184.214 673.918 175.596 675.269 168.512 674.805C161.44 674.342 155.983 672.078 152.176 668.033C148.368 663.988 146.237 658.192 145.8 650.679C145.363 643.154 146.635 633.999 149.553 623.401C155.388 602.206 167.723 575.534 185.563 545.162C221.233 484.439 278.749 409.2 349.664 333.868C420.58 258.536 491.408 197.438 548.572 159.547C577.163 140.596 602.271 127.494 622.223 121.295C632.2 118.195 640.819 116.844 647.902 117.308C654.975 117.772 660.431 120.036 664.239 124.081C668.046 128.126 670.178 133.922 670.614 141.434C671.051 148.959 669.778 158.114 666.861 168.712C661.025 189.907 648.691 216.579 630.851 246.95C595.181 307.674 537.665 382.913 466.75 458.245Z" stroke="#464667" stroke-width="2.8023"/>
<path opacity="0.103448" d="M458.526 463.433C381.701 531.912 306.131 586.218 246.078 618.671C216.042 634.903 189.955 645.631 169.572 649.958C159.38 652.122 150.684 652.67 143.665 651.552C136.658 650.436 131.404 647.674 127.938 643.287C124.473 638.899 122.825 632.923 123.007 625.399C123.189 617.862 125.207 608.86 128.983 598.574C136.535 578.002 151.01 552.575 171.274 523.971C211.788 466.783 275.257 397.156 352.082 328.678C428.908 260.199 504.478 205.892 564.531 173.439C594.568 157.207 620.654 146.48 641.037 142.152C651.229 139.988 659.925 139.44 666.944 140.558C673.951 141.674 679.205 144.436 682.671 148.823C686.137 153.211 687.784 159.187 687.602 166.711C687.42 174.248 685.402 183.25 681.626 193.537C674.074 214.109 659.6 239.536 639.336 268.139C598.821 325.328 535.352 394.954 458.526 463.433Z" stroke="#464667" stroke-width="2.8023"/>
<path opacity="0.137931" d="M449.898 468.11C367.748 529.215 288.011 576.317 225.525 603.086C194.272 616.475 167.407 624.746 146.748 627.17C125.959 629.609 112.016 626.071 105.814 616.662C99.6118 607.254 101.251 592.126 110.519 572.208C119.729 552.415 136.234 528.426 158.767 501.808C203.818 448.59 272.757 385.106 354.908 324.001C437.059 262.896 516.795 215.793 579.281 189.024C610.534 175.636 637.399 167.365 658.058 164.941C678.847 162.502 692.791 166.04 698.992 175.448C705.194 184.857 703.555 199.985 694.287 219.903C685.077 239.696 668.572 263.684 646.039 290.302C600.988 343.521 532.049 407.005 449.898 468.11Z" stroke="#464667" stroke-width="2.8023"/>
<path opacity="0.172414" d="M440.907 472.238C354.056 525.504 270.76 565.044 206.317 585.925C174.085 596.37 146.644 602.122 125.867 602.624C104.963 603.129 91.3571 598.316 85.9457 588.36C80.5344 578.404 83.4134 563.481 94.2774 544.502C105.076 525.639 123.485 503.27 148.116 478.84C197.361 429.997 271.244 373.137 358.095 319.871C444.945 266.605 528.242 227.065 592.685 206.184C624.916 195.74 652.357 189.988 673.134 189.486C694.039 188.981 707.644 193.794 713.056 203.751C718.467 213.707 715.587 228.629 704.723 247.608C693.925 266.471 675.516 288.84 650.886 313.269C601.641 362.113 527.757 418.972 440.907 472.238Z" stroke="#464667" stroke-width="2.8023"/>
<path opacity="0.206897" d="M431.599 475.787C340.71 520.809 254.488 552.487 188.579 567.322C155.614 574.742 127.807 577.931 107.068 576.507C86.207 575.075 73.042 569.024 68.4643 558.595C63.8867 548.167 67.9847 533.564 80.3615 515.668C92.6653 497.877 112.839 477.3 139.38 455.244C192.443 411.146 270.709 361.344 361.599 316.322C452.488 271.301 538.711 239.624 604.62 224.789C637.585 217.369 665.391 214.179 686.129 215.603C706.99 217.035 720.155 223.087 724.733 233.515C729.311 243.943 725.213 258.546 712.836 276.442C700.532 294.233 680.359 314.811 653.819 336.867C600.755 380.964 522.489 430.765 431.599 475.787Z" stroke="#464667" stroke-width="2.8023"/>
<path opacity="0.241379" d="M422.024 478.729C327.787 515.164 239.295 538.738 172.421 547.414C138.973 551.754 111.013 552.357 90.4714 549.019C69.8111 545.662 57.1871 538.415 53.4798 527.595C49.7728 516.775 55.0584 502.604 68.8535 485.925C82.5693 469.343 104.353 450.711 132.601 431.197C189.08 392.181 271.134 349.816 365.37 313.381C459.607 276.946 548.099 253.372 614.972 244.695C648.42 240.355 676.381 239.753 696.922 243.091C717.582 246.448 730.205 253.695 733.913 264.515C737.62 275.335 732.336 289.506 718.54 306.185C704.825 322.767 683.041 341.398 654.792 360.912C598.314 399.928 516.26 442.294 422.024 478.729Z" stroke="#464667" stroke-width="2.8023"/>
<path opacity="0.275862" d="M412.234 481.042C315.367 508.613 225.278 523.904 157.948 526.356C124.272 527.583 96.3695 525.595 76.1812 520.368C55.8786 515.112 43.8942 506.724 41.087 495.596C38.28 484.468 44.7111 470.839 59.8197 455.503C74.8431 440.254 98.0714 423.711 127.813 406.887C187.277 373.249 272.493 338.641 369.36 311.07C466.227 283.498 556.315 268.207 623.645 265.755C657.321 264.529 685.224 266.518 705.412 271.744C725.715 277.001 737.699 285.388 740.506 296.516C743.313 307.645 736.882 321.274 721.774 336.609C706.75 351.858 683.522 368.401 653.78 385.225C594.317 418.863 509.101 453.47 412.234 481.042Z" stroke="#464667" stroke-width="2.8023"/>
<path opacity="0.310345" d="M402.278 482.705C303.518 501.204 212.519 508.095 145.245 504.305C111.597 502.409 83.9633 497.845 64.2814 490.769C44.4896 483.654 33.2362 474.189 31.3521 462.838C29.4682 451.487 36.9956 438.505 53.3026 424.628C69.5195 410.829 94.0168 396.499 125.025 382.493C187.022 354.489 274.752 327.903 373.512 309.404C472.271 290.906 563.27 284.014 630.544 287.805C664.193 289.701 691.826 294.266 711.508 301.341C731.3 308.456 742.553 317.921 744.437 329.272C746.321 340.622 738.794 353.605 722.487 367.482C706.27 381.282 681.773 395.61 650.764 409.617C588.768 437.621 501.037 464.207 402.278 482.705Z" stroke="#464667" stroke-width="2.8023"/>
<path opacity="0.344828" d="M392.212 483.71C292.311 492.994 201.093 491.435 134.386 481.43C101.022 476.426 73.8688 469.321 54.8427 460.45C35.7117 451.531 25.2761 441.06 24.33 429.575C23.3841 418.09 31.9497 405.853 49.332 393.54C66.619 381.295 92.1983 369.288 124.238 358.206C188.295 336.048 277.872 317.686 377.773 308.402C477.675 299.117 568.893 300.677 635.6 310.681C668.964 315.685 696.116 322.791 715.142 331.662C734.274 340.582 744.71 351.052 745.656 362.537C746.602 374.022 738.036 386.259 720.653 398.572C703.366 410.817 677.787 422.823 645.748 433.906C581.691 456.063 492.113 474.425 392.212 483.71Z" stroke="#464667" stroke-width="2.8023"/>
<path opacity="0.37931" d="M382.09 484.045C281.808 484.045 191.065 474.046 125.433 457.903C92.6068 449.829 66.1404 440.238 47.9147 429.64C29.5885 418.983 20.0504 407.585 20.0504 396.056C20.0504 384.526 29.5885 373.128 47.9147 362.472C66.1404 351.873 92.6068 342.282 125.433 334.208C191.065 318.066 281.808 308.066 382.09 308.066C482.373 308.066 573.116 318.066 638.748 334.208C671.574 342.282 698.04 351.873 716.266 362.472C734.592 373.128 744.13 384.526 744.13 396.056C744.13 407.585 734.592 418.983 716.266 429.64C698.04 440.238 671.574 449.829 638.748 457.903C573.116 474.046 482.373 484.045 382.09 484.045Z" stroke="#464667" stroke-width="2.8023"/>
<path opacity="0.413793" d="M371.969 483.709C272.068 474.425 182.491 456.063 118.433 433.905C86.3939 422.823 60.8144 410.817 43.5275 398.572C26.1452 386.258 17.5798 374.022 18.5255 362.537C19.4714 351.052 29.9072 340.581 49.0382 331.661C68.0643 322.791 95.2177 315.685 128.582 310.681C195.288 300.676 286.506 299.117 386.407 308.401C486.309 317.686 575.886 336.048 639.944 358.205C671.983 369.288 697.562 381.294 714.849 393.54C732.231 405.853 740.798 418.09 739.852 429.575C738.906 441.059 728.469 451.53 709.338 460.45C690.312 469.321 663.159 476.426 629.795 481.43C563.089 491.434 471.87 492.994 371.969 483.709Z" stroke="#464667" stroke-width="2.8023"/>
<path opacity="0.448276" d="M361.903 482.705C263.143 464.207 175.413 437.621 113.417 409.617C82.4082 395.61 57.9107 381.282 41.6938 367.482C25.3865 353.606 17.8594 340.623 19.7435 329.272C21.6277 317.921 32.8811 308.457 52.6726 301.341C72.3545 294.266 99.9881 289.701 133.636 287.805C200.91 284.015 291.909 290.906 390.669 309.405C489.429 327.903 577.159 354.489 639.155 382.493C670.164 396.5 694.661 410.829 710.878 424.628C727.185 438.505 734.713 451.487 732.829 462.838C730.945 474.189 719.691 483.654 699.899 490.769C680.217 497.845 652.584 502.409 618.936 504.305C551.662 508.095 460.663 501.204 361.903 482.705Z" stroke="#464667" stroke-width="2.8023"/>
<path opacity="0.482759" d="M351.949 481.041C255.082 453.47 169.866 418.862 110.403 385.225C80.6611 368.4 57.4324 351.858 42.409 336.609C27.3005 321.273 20.8695 307.644 23.6763 296.516C26.4834 285.388 38.4678 277 58.7705 271.744C78.9588 266.517 106.862 264.528 140.538 265.755C207.868 268.207 297.956 283.498 394.823 311.069C491.689 338.641 576.906 373.248 636.37 406.886C666.111 423.711 689.34 440.254 704.363 455.503C719.472 470.838 725.903 484.467 723.096 495.596C720.288 506.724 708.304 515.111 688.001 520.368C667.813 525.594 639.91 527.583 606.235 526.356C538.905 523.904 448.816 508.613 351.949 481.041Z" stroke="#464667" stroke-width="2.8023"/>
<path opacity="0.517241" d="M342.157 478.73C247.92 442.295 165.867 399.929 109.389 360.913C81.1403 341.399 59.3563 322.769 45.6405 306.186C31.8452 289.507 26.5608 275.336 30.2681 264.516C33.9755 253.696 46.5984 246.449 67.2584 243.092C87.7997 239.754 115.761 240.356 149.209 244.696C216.082 253.373 304.574 276.947 398.811 313.382C493.047 349.818 575.101 392.182 631.579 431.198C659.828 450.713 681.611 469.344 695.327 485.927C709.122 502.605 714.407 516.776 710.7 527.596C706.993 538.416 694.37 545.663 673.709 549.02C653.168 552.358 625.207 551.755 591.76 547.415C524.886 538.739 436.394 515.165 342.157 478.73Z" stroke="#464667" stroke-width="2.8023"/>
<path opacity="0.551724" d="M332.583 475.788C241.693 430.766 163.427 380.964 110.363 336.867C83.8226 314.811 63.6491 294.233 51.3453 276.442C38.9685 258.546 34.8704 243.943 39.4481 233.515C44.0259 223.086 57.1909 217.034 78.0522 215.603C98.7904 214.179 126.597 217.369 159.562 224.789C225.471 239.624 311.694 271.301 402.583 316.323C493.473 361.345 571.739 411.147 624.802 455.244C651.343 477.3 671.516 497.877 683.82 515.668C696.196 533.564 700.294 548.167 695.717 558.595C691.139 569.024 677.974 575.075 657.113 576.507C636.374 577.931 608.568 574.742 575.603 567.322C509.694 552.487 423.472 520.809 332.583 475.788Z" stroke="#464667" stroke-width="2.8023"/>
<path opacity="0.586207" d="M323.275 472.24C236.425 418.974 162.541 362.115 113.296 313.271C88.6656 288.841 70.2567 266.473 59.4586 247.61C48.5945 228.631 45.7144 213.708 51.1255 203.752C56.5369 193.795 70.1432 188.983 91.0479 189.488C111.825 189.99 139.266 195.742 171.498 206.186C235.94 227.067 319.237 266.607 406.087 319.873C492.938 373.139 566.821 429.998 616.066 478.842C640.697 503.271 659.106 525.64 669.904 544.503C680.768 563.482 683.647 578.405 678.236 588.361C672.824 598.318 659.219 603.13 638.315 602.625C617.537 602.123 590.097 596.371 557.865 585.927C493.422 565.046 410.126 525.506 323.275 472.24Z" stroke="#464667" stroke-width="2.8023"/>
<path opacity="0.62069" d="M314.283 468.11C232.133 407.005 163.194 343.521 118.142 290.303C95.6095 263.685 79.1049 239.696 69.8949 219.903C60.6267 199.985 58.9874 184.857 65.1893 175.449C71.3912 166.04 85.3343 162.502 106.124 164.941C126.782 167.365 153.648 175.636 184.901 189.025C247.386 215.794 327.123 262.896 409.274 324.001C491.425 385.106 560.364 448.59 605.415 501.809C627.948 528.427 644.452 552.415 653.662 572.208C662.931 592.126 664.57 607.254 658.368 616.663C652.166 626.072 638.223 629.609 617.434 627.17C596.775 624.746 569.91 616.475 538.657 603.087C476.171 576.318 396.434 529.215 314.283 468.11Z" stroke="#464667" stroke-width="2.8023"/>
<path opacity="0.655172" d="M305.655 463.432C228.829 394.954 165.36 325.328 124.846 268.139C104.582 239.536 90.107 214.109 82.5554 193.537C78.7794 183.25 76.7612 174.248 76.5791 166.711C76.3974 159.187 78.045 153.211 81.5109 148.823C84.9768 144.436 90.2306 141.674 97.2377 140.558C104.256 139.44 112.952 139.988 123.144 142.152C143.527 146.48 169.614 157.207 199.65 173.439C259.703 205.892 335.273 260.198 412.099 328.677C488.924 397.156 552.393 466.783 592.908 523.971C613.172 552.575 627.646 578.002 635.198 598.574C638.974 608.86 640.993 617.862 641.175 625.399C641.357 632.923 639.709 638.899 636.243 643.287C632.777 647.674 627.523 650.436 620.516 651.552C613.498 652.67 604.801 652.122 594.609 649.958C574.226 645.63 548.14 634.903 518.103 618.671C458.05 586.218 382.48 531.911 305.655 463.432Z" stroke="#464667" stroke-width="2.8023"/>
<path opacity="0.689655" d="M297.433 458.244C226.518 382.912 169.002 307.673 133.332 246.95C115.492 216.578 103.157 189.905 97.3217 168.711C94.4039 158.113 93.1316 148.958 93.5685 141.434C94.0048 133.921 96.1359 128.125 99.9437 124.08C103.752 120.035 109.208 117.771 116.28 117.307C123.364 116.843 131.983 118.194 141.959 121.294C161.911 127.493 187.02 140.595 215.611 159.547C272.775 197.437 343.603 258.535 414.519 333.867C485.434 409.199 542.95 484.438 578.62 545.161C596.46 575.533 608.794 602.205 614.629 623.399C617.547 633.998 618.82 643.153 618.383 650.678C617.946 658.191 615.815 663.986 612.007 668.031C608.199 672.076 602.743 674.341 595.671 674.804C588.587 675.268 579.969 673.916 569.992 670.817C550.04 664.618 524.932 651.516 496.341 632.564C439.177 594.674 368.349 533.576 297.433 458.244Z" stroke="#464667" stroke-width="2.8023"/>
<path opacity="0.724138" d="M289.657 452.582C225.191 370.97 174.066 290.691 143.514 226.894C128.233 194.985 118.133 167.271 114.058 145.615C112.02 134.786 111.504 125.547 112.557 118.092C113.608 110.648 116.206 105.076 120.326 101.404C124.446 97.7315 130.063 95.9803 137.147 96.1734C144.242 96.3668 152.717 98.5116 162.402 102.523C181.771 110.547 205.711 125.925 232.639 147.452C286.478 190.492 352.025 257.916 416.491 339.528C480.956 421.14 532.081 501.418 562.633 565.215C577.915 597.124 588.014 624.838 592.089 646.494C594.126 657.323 594.643 666.561 593.59 674.017C592.539 681.461 589.94 687.033 585.82 690.706C581.701 694.378 576.084 696.128 569 695.935C561.906 695.742 553.43 693.598 543.745 689.586C524.375 681.563 500.437 666.184 473.508 644.657C419.67 601.617 354.123 534.193 289.657 452.582Z" stroke="#464667" stroke-width="2.8023"/>
<path opacity="0.758621" d="M282.365 446.491C224.839 359.221 180.494 274.513 155.292 208.129C142.687 174.926 134.899 146.38 132.616 124.428C131.474 113.45 131.719 104.198 133.379 96.8685C135.037 89.5499 138.081 84.2442 142.481 80.9714C146.881 77.6987 152.616 76.4745 159.657 77.3227C166.709 78.1722 174.977 81.0929 184.297 85.9867C202.936 95.7734 225.523 113.311 250.584 137.25C300.688 185.112 360.454 258.349 417.979 345.619C475.505 432.89 519.849 517.599 545.052 583.983C557.657 617.186 565.445 645.731 567.727 667.683C568.869 678.661 568.625 687.914 566.965 695.244C565.307 702.562 562.262 707.867 557.862 711.14C553.462 714.412 547.728 715.638 540.687 714.789C533.635 713.94 525.367 711.018 516.046 706.125C497.408 696.338 474.82 678.801 449.76 654.862C399.656 607 339.89 533.762 282.365 446.491Z" stroke="#464667" stroke-width="2.8023"/>
<path opacity="0.793103" d="M275.588 440.018C225.442 347.753 188.215 259.26 168.554 190.793C158.721 156.549 153.304 127.39 152.832 105.308C152.595 94.2655 153.597 85.0707 155.852 77.9226C158.105 70.7849 161.572 65.7854 166.218 62.9359C170.864 60.0865 176.673 59.3965 183.619 60.8934C190.574 62.3926 198.571 66.0683 207.455 71.807C225.221 83.283 246.285 102.845 269.286 129.014C315.274 181.334 368.804 259.828 418.951 352.093C469.097 444.358 506.324 532.851 525.985 601.318C535.818 635.562 541.235 664.721 541.707 686.803C541.944 697.846 540.942 707.04 538.687 714.188C536.434 721.326 532.967 726.326 528.321 729.175C523.675 732.024 517.866 732.715 510.92 731.218C503.965 729.718 495.968 726.043 487.084 720.304C469.318 708.828 448.254 689.266 425.253 663.097C379.265 610.777 325.735 532.283 275.588 440.018Z" stroke="#464667" stroke-width="2.8023"/>
<path opacity="0.827586" d="M269.358 433.212C226.972 336.654 197.147 245.05 183.179 175.022C176.192 139.997 173.188 110.446 174.528 88.4024C175.199 77.3792 176.953 68.3117 179.786 61.3995C182.615 54.4973 186.477 49.8419 191.334 47.4361C196.191 45.0303 202.031 44.8795 208.827 47.0139C215.633 49.1513 223.299 53.5528 231.68 60.0928C248.438 73.1709 267.817 94.6108 288.584 122.81C330.105 179.19 376.992 262.341 419.378 358.899C461.764 455.457 491.589 547.061 505.558 617.089C512.544 652.114 515.549 681.665 514.208 703.708C513.537 714.732 511.784 723.8 508.951 730.712C506.121 737.615 502.258 742.27 497.401 744.675C492.545 747.081 486.705 747.232 479.909 745.098C473.103 742.96 465.437 738.558 457.057 732.018C440.299 718.94 420.92 697.5 400.153 669.301C358.632 612.921 311.744 529.769 269.358 433.212Z" stroke="#464667" stroke-width="2.8023"/>
<path opacity="0.862069" d="M263.698 426.124C229.395 326.009 207.199 231.992 199.029 160.936C194.943 125.396 194.375 95.6782 197.519 73.8417C199.092 62.9216 201.582 54.05 204.972 47.4265C208.357 40.812 212.586 36.5355 217.617 34.5905C222.647 32.6456 228.474 33.0342 235.069 35.7898C241.674 38.5492 248.95 43.6447 256.762 50.9363C272.384 65.517 289.932 88.6699 308.307 118.685C345.044 178.696 384.931 265.873 419.234 365.988C453.537 466.104 475.733 560.121 483.903 631.177C487.99 666.717 488.557 696.435 485.413 718.271C483.84 729.191 481.35 738.063 477.96 744.686C474.575 751.301 470.347 755.577 465.317 757.522C460.286 759.467 454.459 759.079 447.863 756.323C441.258 753.564 433.983 748.468 426.17 741.177C410.548 726.596 393 703.443 374.626 673.428C337.888 613.417 298.001 526.24 263.698 426.124Z" stroke="#464667" stroke-width="2.8023"/>
<path opacity="0.896552" d="M258.63 418.808C232.672 315.897 218.274 220.181 215.965 148.638C214.81 112.855 216.682 83.1965 221.607 61.7331C224.069 50.9997 227.279 42.3925 231.199 36.108C235.114 29.8319 239.676 25.9648 244.842 24.4941C250.009 23.0236 255.78 23.9496 262.125 27.3054C268.478 30.6658 275.308 36.4153 282.493 44.4027C296.86 60.375 312.441 85.0657 328.284 116.668C359.958 179.853 392.541 270.392 418.5 373.303C444.458 476.214 458.856 571.93 461.165 643.473C462.32 679.256 460.448 708.914 455.524 730.377C453.061 741.111 449.852 749.719 445.932 756.003C442.017 762.28 437.455 766.146 432.288 767.616C427.122 769.087 421.351 768.162 415.006 764.806C408.653 761.446 401.823 755.695 394.638 747.708C380.271 731.736 364.689 707.046 348.846 675.443C317.172 612.259 284.588 521.719 258.63 418.808Z" stroke="#464667" stroke-width="2.8023"/>
<path opacity="0.931035" d="M254.168 411.32C236.752 306.397 230.262 209.712 233.831 138.226C235.617 102.472 239.916 73.099 246.582 52.1725C249.916 41.7075 253.82 33.4301 258.241 27.5325C262.656 21.6426 267.516 18.2152 272.78 17.2289C278.045 16.2428 283.716 17.6976 289.762 21.6283C295.815 25.5641 302.148 31.9241 308.65 40.5466C321.653 57.7889 335.15 83.8287 348.339 116.778C374.709 182.655 399.741 275.868 417.157 380.791C434.573 485.714 441.063 582.4 437.493 653.885C435.708 689.639 431.409 719.012 424.742 739.938C421.408 750.403 417.505 758.681 413.084 764.579C408.669 770.469 403.808 773.897 398.543 774.883C393.279 775.869 387.608 774.414 381.563 770.483C375.51 766.547 369.177 760.187 362.674 751.564C349.672 734.322 336.175 708.283 322.986 675.333C296.615 609.456 271.584 516.243 254.168 411.32Z" stroke="#464667" stroke-width="2.8023"/>
<path opacity="0.965517" d="M250.327 403.716C241.586 297.58 243.053 200.662 252.474 129.778C257.187 94.3252 263.878 65.4619 272.237 45.2318C276.417 35.1149 280.985 27.23 285.873 21.764C290.755 16.3051 295.877 13.3406 301.201 12.8459C306.524 12.3512 312.053 14.3257 317.753 18.8012C323.461 23.2824 329.248 30.2052 335.018 39.3971C346.556 57.778 357.866 84.9682 368.302 119.014C389.167 187.082 406.455 282.257 415.197 388.394C423.938 494.531 422.47 591.45 413.049 662.333C408.337 697.786 401.645 726.65 393.286 746.88C389.106 756.996 384.538 764.881 379.65 770.347C374.769 775.806 369.646 778.77 364.323 779.265C358.999 779.759 353.47 777.786 347.77 773.31C342.063 768.829 336.275 761.907 330.505 752.714C318.966 734.334 307.658 707.143 297.222 673.098C276.357 605.029 259.068 509.853 250.327 403.716Z" stroke="#464667" stroke-width="2.8023"/>
<path d="M247.11 396.055C247.11 289.513 256.524 193.099 271.725 123.357C279.328 88.4753 288.363 60.3413 298.35 40.9619C303.344 31.2704 308.542 23.8383 313.859 18.8457C319.171 13.8595 324.516 11.3818 329.859 11.3818C335.203 11.3819 340.548 13.8595 345.859 18.8457C351.177 23.8383 356.374 31.2706 361.368 40.9619C371.355 60.3413 380.39 88.4752 387.993 123.357C403.194 193.099 412.608 289.513 412.609 396.055C412.609 502.597 403.194 599.011 387.993 668.753C380.39 703.635 371.355 731.769 361.368 751.148C356.374 760.84 351.177 768.272 345.859 773.265C340.548 778.251 335.203 780.728 329.859 780.729C324.516 780.729 319.171 778.251 313.859 773.265C308.542 768.272 303.344 760.84 298.35 751.148C288.363 731.769 279.328 703.635 271.725 668.753C256.524 599.011 247.11 502.597 247.11 396.055Z" stroke="#464667" stroke-width="2.8023"/>
</g>
</svg>
