<svg width="648" height="908" viewBox="0 0 648 908" fill="none" xmlns="http://www.w3.org/2000/svg">
<g opacity="0.7">
<path opacity="0.0526316" d="M553.533 733.145C528.127 759.374 446.926 803.265 325.372 768.998C173.429 726.163 114.664 612.619 -20.9468 553.746C-121.038 510.292 -389.987 445.067 -544.637 517.142" stroke="url(#paint0_linear_2015_353)" stroke-width="2.81501"/>
<path opacity="0.105263" d="M578.591 678.159C556.857 706.305 482.013 756.542 356.509 732.321C199.629 702.045 125.891 593.891 -16.9078 546.339C-122.304 511.243 -398.566 468.189 -542.66 552.414" stroke="url(#paint1_linear_2015_353)" stroke-width="2.81501"/>
<path opacity="0.157895" d="M597.523 622.431C579.699 652.186 512.032 708.219 383.953 694.311C223.854 676.926 135.951 575.345 -12.4703 539.636C-122.017 513.281 -402.564 492.872 -534.524 588.323" stroke="url(#paint2_linear_2015_353)" stroke-width="2.81501"/>
<path opacity="0.210526" d="M610.261 566.46C596.543 597.497 536.795 658.711 407.544 655.268C245.98 650.965 144.875 557.07 -7.54352 533.596C-120.04 516.271 -401.8 518.73 -520.179 624.361" stroke="url(#paint3_linear_2015_353)" stroke-width="2.81501"/>
<path opacity="0.263158" d="M616.806 510.753C607.345 542.734 556.169 608.459 427.163 615.519C265.904 624.344 152.706 539.164 -2.04025 528.182C-116.254 520.076 -396.14 545.376 -499.641 660.031" stroke="url(#paint4_linear_2015_353)" stroke-width="2.81501"/>
<path opacity="0.315789" d="M617.227 455.812C612.125 488.384 570.084 557.9 442.735 575.386C283.548 597.243 159.496 521.711 4.11849 523.341C-110.562 524.544 -385.506 572.408 -472.996 694.83" stroke="url(#paint5_linear_2015_353)" stroke-width="2.81501"/>
<path opacity="0.368421" d="M611.663 402.126C610.977 434.933 578.53 507.479 454.234 535.198C298.864 569.847 165.316 504.792 11.0096 519.016C-102.88 529.515 -369.871 599.417 -440.391 728.265" stroke="url(#paint6_linear_2015_353)" stroke-width="2.81501"/>
<path opacity="0.421053" d="M600.313 350.177C604.049 382.861 581.552 457.641 461.671 495.29C311.819 542.352 170.241 488.486 18.6953 515.148C-93.1564 534.827 -349.268 626.003 -402.045 759.865" stroke="url(#paint7_linear_2015_353)" stroke-width="2.81501"/>
<path opacity="0.473684" d="M583.445 300.421C591.564 332.623 579.263 408.818 465.11 455.985C322.419 514.944 174.36 472.856 27.2359 511.665C-81.3523 540.308 -323.78 651.759 -358.236 789.169" stroke="url(#paint8_linear_2015_353)" stroke-width="2.81501"/>
<path opacity="0.526316" d="M561.379 253.296C573.791 284.663 571.822 361.438 464.648 417.606C330.68 487.816 177.762 457.969 36.6724 508.498C-67.4626 545.793 -293.549 676.297 -309.307 815.749" stroke="url(#paint9_linear_2015_353)" stroke-width="2.81501"/>
<path opacity="0.578947" d="M534.507 209.21C551.076 239.398 559.46 315.912 460.439 380.466C336.662 461.158 180.562 443.877 47.0514 505.574C-51.4893 551.111 -258.758 699.239 -255.644 839.205" stroke="url(#paint10_linear_2015_353)" stroke-width="2.81501"/>
<path opacity="0.631579" d="M503.257 168.529C523.802 197.208 542.446 272.623 452.663 344.855C340.435 435.145 182.862 430.621 58.3932 502.809C-33.4736 556.089 -219.653 720.217 -197.703 859.164" stroke="url(#paint11_linear_2015_353)" stroke-width="2.81501"/>
<path opacity="0.684211" d="M468.117 131.602C492.413 158.457 521.114 231.947 441.552 311.065C342.101 409.963 184.781 418.245 70.7191 500.134C-13.4674 560.574 -176.519 738.905 -135.972 875.31" stroke="url(#paint12_linear_2015_353)" stroke-width="2.81501"/>
<path opacity="0.736842" d="M429.609 98.7129C457.389 123.45 495.832 194.21 427.364 279.348C341.78 385.771 186.438 406.768 84.031 497.461C8.44718 564.398 -129.689 754.977 -70.99 887.346" stroke="url(#paint13_linear_2015_353)" stroke-width="2.81501"/>
<path opacity="0.789474" d="M388.301 70.1196C419.261 92.4681 467.025 159.722 410.401 249.947C339.621 362.729 187.958 396.212 98.3291 494.714C32.1761 567.415 -79.5315 768.155 -3.32351 895.038" stroke="url(#paint14_linear_2015_353)" stroke-width="2.81501"/>
<path opacity="0.842105" d="M344.782 46.0228C378.583 65.7376 435.144 128.748 390.984 223.073C335.784 340.978 189.462 386.579 113.593 491.811C57.5953 569.481 -26.46 778.181 66.4221 898.188" stroke="url(#paint15_linear_2015_353)" stroke-width="2.81501"/>
<path opacity="0.894737" d="M299.673 26.5782C335.944 43.4433 400.684 101.521 369.471 198.911C330.456 320.648 191.078 377.867 129.8 488.677C84.5714 570.463 29.0894 784.839 137.628 896.654" stroke="url(#paint16_linear_2015_353)" stroke-width="2.81501"/>
<path opacity="0.947368" d="M253.606 11.8874C291.95 25.7182 364.158 78.2266 346.235 177.614C323.832 301.849 192.926 370.06 146.909 485.234C112.946 570.24 86.6447 787.942 209.651 890.34" stroke="url(#paint17_linear_2015_353)" stroke-width="2.81501"/>
<path d="M207.233 2C247.23 12.6447 326.116 59.0085 321.679 159.306C316.133 284.677 195.133 363.133 164.882 481.408C142.556 568.704 145.724 787.346 281.85 879.206" stroke="url(#paint18_linear_2015_353)" stroke-width="2.81501"/>
</g>
<defs>
<linearGradient id="paint0_linear_2015_353" x1="543.973" y1="755.977" x2="-467.334" y2="332.525" gradientUnits="userSpaceOnUse">
<stop stop-color="#464667"/>
<stop offset="1" stop-color="#464667" stop-opacity="0"/>
</linearGradient>
<linearGradient id="paint1_linear_2015_353" x1="572.158" y1="701.641" x2="-502.875" y2="407.17" gradientUnits="userSpaceOnUse">
<stop stop-color="#464667"/>
<stop offset="1" stop-color="#464667" stop-opacity="0"/>
</linearGradient>
<linearGradient id="paint2_linear_2015_353" x1="594.289" y1="646.307" x2="-521.9" y2="495.124" gradientUnits="userSpaceOnUse">
<stop stop-color="#464667"/>
<stop offset="1" stop-color="#464667" stop-opacity="0"/>
</linearGradient>
<linearGradient id="paint3_linear_2015_353" x1="610.261" y1="590.466" x2="-520.179" y2="590.466" gradientUnits="userSpaceOnUse">
<stop stop-color="#464667"/>
<stop offset="1" stop-color="#464667" stop-opacity="0"/>
</linearGradient>
<linearGradient id="paint4_linear_2015_353" x1="620.04" y1="534.629" x2="-496.149" y2="685.812" gradientUnits="userSpaceOnUse">
<stop stop-color="#464667"/>
<stop offset="1" stop-color="#464667" stop-opacity="0"/>
</linearGradient>
<linearGradient id="paint5_linear_2015_353" x1="623.659" y1="479.294" x2="-451.374" y2="773.765" gradientUnits="userSpaceOnUse">
<stop stop-color="#464667"/>
<stop offset="1" stop-color="#464667" stop-opacity="0"/>
</linearGradient>
<linearGradient id="paint6_linear_2015_353" x1="621.223" y1="424.958" x2="-390.084" y2="848.41" gradientUnits="userSpaceOnUse">
<stop stop-color="#464667"/>
<stop offset="1" stop-color="#464667" stop-opacity="0"/>
</linearGradient>
<linearGradient id="paint7_linear_2015_353" x1="612.896" y1="372.109" x2="-318.056" y2="906.25" gradientUnits="userSpaceOnUse">
<stop stop-color="#464667"/>
<stop offset="1" stop-color="#464667" stop-opacity="0"/>
</linearGradient>
<linearGradient id="paint8_linear_2015_353" x1="598.914" y1="321.212" x2="-241.294" y2="946.344" gradientUnits="userSpaceOnUse">
<stop stop-color="#464667"/>
<stop offset="1" stop-color="#464667" stop-opacity="0"/>
</linearGradient>
<linearGradient id="paint9_linear_2015_353" x1="579.564" y1="272.719" x2="-165.018" y2="969.857" gradientUnits="userSpaceOnUse">
<stop stop-color="#464667"/>
<stop offset="1" stop-color="#464667" stop-opacity="0"/>
</linearGradient>
<linearGradient id="paint10_linear_2015_353" x1="555.208" y1="227.051" x2="-93.092" y2="979.296" gradientUnits="userSpaceOnUse">
<stop stop-color="#464667"/>
<stop offset="1" stop-color="#464667" stop-opacity="0"/>
</linearGradient>
<linearGradient id="paint11_linear_2015_353" x1="526.248" y1="184.593" x2="-27.9476" y2="977.773" gradientUnits="userSpaceOnUse">
<stop stop-color="#464667"/>
<stop offset="1" stop-color="#464667" stop-opacity="0"/>
</linearGradient>
<linearGradient id="paint12_linear_2015_353" x1="493.146" y1="145.713" x2="29.2817" y2="968.478" gradientUnits="userSpaceOnUse">
<stop stop-color="#464667"/>
<stop offset="1" stop-color="#464667" stop-opacity="0"/>
</linearGradient>
<linearGradient id="paint13_linear_2015_353" x1="456.402" y1="110.716" x2="78.4616" y2="954.303" gradientUnits="userSpaceOnUse">
<stop stop-color="#464667"/>
<stop offset="1" stop-color="#464667" stop-opacity="0"/>
</linearGradient>
<linearGradient id="paint14_linear_2015_353" x1="416.564" y1="79.8841" x2="120.192" y2="937.711" gradientUnits="userSpaceOnUse">
<stop stop-color="#464667"/>
<stop offset="1" stop-color="#464667" stop-opacity="0"/>
</linearGradient>
<linearGradient id="paint15_linear_2015_353" x1="374.205" y1="53.4413" x2="155.551" y2="920.66" gradientUnits="userSpaceOnUse">
<stop stop-color="#464667"/>
<stop offset="1" stop-color="#464667" stop-opacity="0"/>
</linearGradient>
<linearGradient id="paint16_linear_2015_353" x1="329.934" y1="31.5695" x2="185.932" y2="904.621" gradientUnits="userSpaceOnUse">
<stop stop-color="#464667"/>
<stop offset="1" stop-color="#464667" stop-opacity="0"/>
</linearGradient>
<linearGradient id="paint17_linear_2015_353" x1="284.373" y1="14.3969" x2="212.91" y2="890.606" gradientUnits="userSpaceOnUse">
<stop stop-color="#464667"/>
<stop offset="1" stop-color="#464667" stop-opacity="0"/>
</linearGradient>
<linearGradient id="paint18_linear_2015_353" x1="238.17" y1="2" x2="238.17" y2="879.206" gradientUnits="userSpaceOnUse">
<stop stop-color="#464667"/>
<stop offset="1" stop-color="#464667" stop-opacity="0"/>
</linearGradient>
</defs>
</svg>
