<svg width="81" height="91" viewBox="0 0 81 91" fill="none" xmlns="http://www.w3.org/2000/svg">
<path d="M69.852 90.0577H6.14698C2.7521 90.0577 0 87.3056 0 83.9107V10.147C0 6.7521 2.7521 4 6.14698 4H47.4994L75.999 32.4996V83.9107C75.999 87.3056 73.2469 90.0577 69.852 90.0577Z" fill="url(#paint0_linear_2015_6825)"/>
<mask id="path-2-outside-1_2015_6825" maskUnits="userSpaceOnUse" x="15.249" y="47.5142" width="43" height="16" fill="black">
<rect fill="white" x="15.249" y="47.5142" width="43" height="16"/>
<path d="M17.089 62.6142C16.8357 62.6142 16.6224 62.5275 16.449 62.3542C16.2757 62.1808 16.189 61.9675 16.189 61.7142V49.4742C16.189 49.2208 16.2757 49.0075 16.449 48.8342C16.6224 48.6475 16.8357 48.5542 17.089 48.5542H21.649C22.6624 48.5542 23.509 48.6875 24.189 48.9542C24.8824 49.2075 25.429 49.5542 25.829 49.9942C26.2424 50.4208 26.5357 50.8942 26.709 51.4142C26.8957 51.9342 26.989 52.4608 26.989 52.9942C26.989 53.5275 26.8957 54.0542 26.709 54.5742C26.5357 55.0942 26.2424 55.5742 25.829 56.0142C25.429 56.4408 24.8824 56.7875 24.189 57.0542C23.509 57.3075 22.6624 57.4342 21.649 57.4342H18.009V61.7142C18.009 61.9675 17.9157 62.1808 17.729 62.3542C17.5557 62.5275 17.3424 62.6142 17.089 62.6142ZM18.009 55.7142H21.469C22.469 55.7142 23.2357 55.5808 23.769 55.3142C24.3024 55.0342 24.669 54.6875 24.869 54.2742C25.069 53.8475 25.169 53.4208 25.169 52.9942C25.169 52.5542 25.069 52.1275 24.869 51.7142C24.669 51.3008 24.3024 50.9608 23.769 50.6942C23.2357 50.4142 22.469 50.2742 21.469 50.2742H18.009V55.7142ZM31.9265 62.5142C31.6732 62.5142 31.4599 62.4275 31.2865 62.2542C31.1132 62.0808 31.0265 61.8675 31.0265 61.6142V49.4742C31.0265 49.2208 31.1132 49.0075 31.2865 48.8342C31.4599 48.6475 31.6732 48.5542 31.9265 48.5542H35.9465C37.1465 48.5542 38.1865 48.7608 39.0665 49.1742C39.9465 49.5742 40.6799 50.1142 41.2665 50.7942C41.8532 51.4608 42.2865 52.2075 42.5665 53.0342C42.8599 53.8608 43.0065 54.6942 43.0065 55.5342C43.0065 56.3742 42.8599 57.2075 42.5665 58.0342C42.2865 58.8608 41.8532 59.6142 41.2665 60.2942C40.6799 60.9608 39.9465 61.5008 39.0665 61.9142C38.1865 62.3142 37.1465 62.5142 35.9465 62.5142H31.9265ZM32.8465 60.8142H35.7265C36.8465 60.8142 37.8132 60.5942 38.6265 60.1542C39.4532 59.7008 40.0865 59.0808 40.5265 58.2942C40.9799 57.4942 41.2065 56.5742 41.2065 55.5342C41.2065 54.4942 40.9799 53.5808 40.5265 52.7942C40.0865 51.9942 39.4532 51.3742 38.6265 50.9342C37.8132 50.4808 36.8465 50.2542 35.7265 50.2542H32.8465V60.8142ZM48.3461 62.6142C48.0927 62.6142 47.8794 62.5275 47.7061 62.3542C47.5327 62.1808 47.4461 61.9675 47.4461 61.7142V49.4742C47.4461 49.2208 47.5327 49.0075 47.7061 48.8342C47.8794 48.6475 48.0927 48.5542 48.3461 48.5542H56.1261C56.3661 48.5542 56.5661 48.6408 56.7261 48.8142C56.8994 48.9742 56.9861 49.1742 56.9861 49.4142C56.9861 49.6542 56.8994 49.8542 56.7261 50.0142C56.5661 50.1742 56.3661 50.2542 56.1261 50.2542H49.2661V54.6742H55.4261C55.6661 54.6742 55.8661 54.7608 56.0261 54.9342C56.1994 55.0942 56.2861 55.2942 56.2861 55.5342C56.2861 55.7742 56.1994 55.9742 56.0261 56.1342C55.8661 56.2942 55.6661 56.3742 55.4261 56.3742H49.2661V61.7142C49.2661 61.9675 49.1727 62.1808 48.9861 62.3542C48.8127 62.5275 48.5994 62.6142 48.3461 62.6142Z"/>
</mask>
<path d="M17.089 62.6142C16.8357 62.6142 16.6224 62.5275 16.449 62.3542C16.2757 62.1808 16.189 61.9675 16.189 61.7142V49.4742C16.189 49.2208 16.2757 49.0075 16.449 48.8342C16.6224 48.6475 16.8357 48.5542 17.089 48.5542H21.649C22.6624 48.5542 23.509 48.6875 24.189 48.9542C24.8824 49.2075 25.429 49.5542 25.829 49.9942C26.2424 50.4208 26.5357 50.8942 26.709 51.4142C26.8957 51.9342 26.989 52.4608 26.989 52.9942C26.989 53.5275 26.8957 54.0542 26.709 54.5742C26.5357 55.0942 26.2424 55.5742 25.829 56.0142C25.429 56.4408 24.8824 56.7875 24.189 57.0542C23.509 57.3075 22.6624 57.4342 21.649 57.4342H18.009V61.7142C18.009 61.9675 17.9157 62.1808 17.729 62.3542C17.5557 62.5275 17.3424 62.6142 17.089 62.6142ZM18.009 55.7142H21.469C22.469 55.7142 23.2357 55.5808 23.769 55.3142C24.3024 55.0342 24.669 54.6875 24.869 54.2742C25.069 53.8475 25.169 53.4208 25.169 52.9942C25.169 52.5542 25.069 52.1275 24.869 51.7142C24.669 51.3008 24.3024 50.9608 23.769 50.6942C23.2357 50.4142 22.469 50.2742 21.469 50.2742H18.009V55.7142ZM31.9265 62.5142C31.6732 62.5142 31.4599 62.4275 31.2865 62.2542C31.1132 62.0808 31.0265 61.8675 31.0265 61.6142V49.4742C31.0265 49.2208 31.1132 49.0075 31.2865 48.8342C31.4599 48.6475 31.6732 48.5542 31.9265 48.5542H35.9465C37.1465 48.5542 38.1865 48.7608 39.0665 49.1742C39.9465 49.5742 40.6799 50.1142 41.2665 50.7942C41.8532 51.4608 42.2865 52.2075 42.5665 53.0342C42.8599 53.8608 43.0065 54.6942 43.0065 55.5342C43.0065 56.3742 42.8599 57.2075 42.5665 58.0342C42.2865 58.8608 41.8532 59.6142 41.2665 60.2942C40.6799 60.9608 39.9465 61.5008 39.0665 61.9142C38.1865 62.3142 37.1465 62.5142 35.9465 62.5142H31.9265ZM32.8465 60.8142H35.7265C36.8465 60.8142 37.8132 60.5942 38.6265 60.1542C39.4532 59.7008 40.0865 59.0808 40.5265 58.2942C40.9799 57.4942 41.2065 56.5742 41.2065 55.5342C41.2065 54.4942 40.9799 53.5808 40.5265 52.7942C40.0865 51.9942 39.4532 51.3742 38.6265 50.9342C37.8132 50.4808 36.8465 50.2542 35.7265 50.2542H32.8465V60.8142ZM48.3461 62.6142C48.0927 62.6142 47.8794 62.5275 47.7061 62.3542C47.5327 62.1808 47.4461 61.9675 47.4461 61.7142V49.4742C47.4461 49.2208 47.5327 49.0075 47.7061 48.8342C47.8794 48.6475 48.0927 48.5542 48.3461 48.5542H56.1261C56.3661 48.5542 56.5661 48.6408 56.7261 48.8142C56.8994 48.9742 56.9861 49.1742 56.9861 49.4142C56.9861 49.6542 56.8994 49.8542 56.7261 50.0142C56.5661 50.1742 56.3661 50.2542 56.1261 50.2542H49.2661V54.6742H55.4261C55.6661 54.6742 55.8661 54.7608 56.0261 54.9342C56.1994 55.0942 56.2861 55.2942 56.2861 55.5342C56.2861 55.7742 56.1994 55.9742 56.0261 56.1342C55.8661 56.2942 55.6661 56.3742 55.4261 56.3742H49.2661V61.7142C49.2661 61.9675 49.1727 62.1808 48.9861 62.3542C48.8127 62.5275 48.5994 62.6142 48.3461 62.6142Z" fill="white"/>
<path d="M16.449 62.3542L16.67 62.1332H16.67L16.449 62.3542ZM16.449 48.8342L16.6701 49.0553L16.678 49.0468L16.449 48.8342ZM24.189 48.9542L24.0749 49.2452L24.0818 49.2477L24.189 48.9542ZM25.829 49.9942L25.5977 50.2045L25.6046 50.2116L25.829 49.9942ZM26.709 51.4142L26.4125 51.513L26.4149 51.5197L26.709 51.4142ZM26.709 54.5742L26.4148 54.4686L26.4126 54.4753L26.709 54.5742ZM25.829 56.0142L25.6013 55.8002L25.6011 55.8004L25.829 56.0142ZM24.189 57.0542L24.2981 57.347L24.3012 57.3458L24.189 57.0542ZM18.009 57.4342V57.1217H17.6965V57.4342H18.009ZM17.729 62.3542L17.5162 62.125L17.5081 62.1332L17.729 62.3542ZM18.009 55.7142H17.6965V56.0266H18.009V55.7142ZM23.769 55.3142L23.9088 55.5937L23.9143 55.5908L23.769 55.3142ZM24.869 54.2742L25.1503 54.4103L25.152 54.4068L24.869 54.2742ZM23.769 50.6942L23.6237 50.9709L23.6293 50.9737L23.769 50.6942ZM18.009 50.2742V49.9617H17.6965V50.2742H18.009ZM17.089 62.6142V62.3017C16.9155 62.3017 16.7826 62.2458 16.67 62.1332L16.449 62.3542L16.2281 62.5751C16.4622 62.8092 16.7559 62.9266 17.089 62.9266V62.6142ZM16.449 62.3542L16.67 62.1332C16.5574 62.0206 16.5015 61.8877 16.5015 61.7142H16.189H15.8765C15.8765 62.0473 15.994 62.341 16.2281 62.5751L16.449 62.3542ZM16.189 61.7142H16.5015V49.4742H16.189H15.8765V61.7142H16.189ZM16.189 49.4742H16.5015C16.5015 49.3006 16.5574 49.1677 16.67 49.0551L16.449 48.8342L16.2281 48.6132C15.994 48.8473 15.8765 49.141 15.8765 49.4742H16.189ZM16.449 48.8342L16.678 49.0468C16.7926 48.9234 16.9231 48.8666 17.089 48.8666V48.5542V48.2417C16.7483 48.2417 16.4521 48.3716 16.22 48.6215L16.449 48.8342ZM17.089 48.5542V48.8666H21.649V48.5542V48.2417H17.089V48.5542ZM21.649 48.5542V48.8666C22.6374 48.8666 23.4424 48.997 24.0749 49.2451L24.189 48.9542L24.3031 48.6632C23.5756 48.378 22.6873 48.2417 21.649 48.2417V48.5542ZM24.189 48.9542L24.0818 49.2477C24.7389 49.4878 25.239 49.8097 25.5978 50.2044L25.829 49.9942L26.0602 49.784C25.619 49.2986 25.0258 48.9272 24.2963 48.6607L24.189 48.9542ZM25.829 49.9942L25.6046 50.2116C25.9881 50.6075 26.2553 51.041 26.4126 51.513L26.709 51.4142L27.0055 51.3153C26.8161 50.7473 26.4966 50.2342 26.0535 49.7767L25.829 49.9942ZM26.709 51.4142L26.4149 51.5197C26.5899 52.0071 26.6765 52.4981 26.6765 52.9942H26.989H27.3015C27.3015 52.4236 27.2015 51.8612 27.0031 51.3086L26.709 51.4142ZM26.989 52.9942H26.6765C26.6765 53.4902 26.5899 53.9812 26.4149 54.4686L26.709 54.5742L27.0031 54.6797C27.2015 54.1271 27.3015 53.5648 27.3015 52.9942H26.989ZM26.709 54.5742L26.4126 54.4753C26.2549 54.9483 25.9868 55.3898 25.6013 55.8002L25.829 56.0142L26.0568 56.2281C26.4979 55.7585 26.8164 55.2401 27.0055 54.673L26.709 54.5742ZM25.829 56.0142L25.6011 55.8004C25.2408 56.1847 24.7377 56.5083 24.0768 56.7625L24.189 57.0542L24.3012 57.3458C25.027 57.0667 25.6173 56.6969 26.057 56.2279L25.829 56.0142ZM24.189 57.0542L24.0799 56.7613C23.4457 56.9976 22.6388 57.1217 21.649 57.1217V57.4342V57.7466C22.6859 57.7466 23.5724 57.6174 24.2981 57.347L24.189 57.0542ZM21.649 57.4342V57.1217H18.009V57.4342V57.7466H21.649V57.4342ZM18.009 57.4342H17.6965V61.7142H18.009H18.3215V57.4342H18.009ZM18.009 61.7142H17.6965C17.6965 61.8801 17.6398 62.0106 17.5164 62.1252L17.729 62.3542L17.9417 62.5831C18.1916 62.3511 18.3215 62.0549 18.3215 61.7142H18.009ZM17.729 62.3542L17.5081 62.1332C17.3955 62.2458 17.2626 62.3017 17.089 62.3017V62.6142V62.9266C17.4221 62.9266 17.7159 62.8092 17.95 62.5751L17.729 62.3542ZM18.009 55.7142V56.0266H21.469V55.7142V55.4017H18.009V55.7142ZM21.469 55.7142V56.0266C22.4888 56.0266 23.3121 55.892 23.9088 55.5937L23.769 55.3142L23.6293 55.0347C23.1593 55.2697 22.4492 55.4017 21.469 55.4017V55.7142ZM23.769 55.3142L23.9143 55.5908C24.4884 55.2894 24.9133 54.9002 25.1503 54.4103L24.869 54.2742L24.5877 54.1381C24.4248 54.4748 24.1163 54.7789 23.6238 55.0375L23.769 55.3142ZM24.869 54.2742L25.152 54.4068C25.3694 53.943 25.4815 53.4713 25.4815 52.9942H25.169H24.8565C24.8565 53.3704 24.7687 53.752 24.5861 54.1415L24.869 54.2742ZM25.169 52.9942H25.4815C25.4815 52.505 25.3699 52.0319 25.1503 51.5781L24.869 51.7142L24.5877 51.8503C24.7681 52.2231 24.8565 52.6034 24.8565 52.9942H25.169ZM24.869 51.7142L25.1503 51.5781C24.9123 51.0862 24.4853 50.7029 23.9088 50.4147L23.769 50.6942L23.6293 50.9737C24.1194 51.2187 24.4257 51.5154 24.5877 51.8503L24.869 51.7142ZM23.769 50.6942L23.9143 50.4175C23.3158 50.1033 22.4902 49.9617 21.469 49.9617V50.2742V50.5866C22.4479 50.5866 23.1556 50.725 23.6238 50.9708L23.769 50.6942ZM21.469 50.2742V49.9617H18.009V50.2742V50.5866H21.469V50.2742ZM18.009 50.2742H17.6965V55.7142H18.009H18.3215V50.2742H18.009ZM31.2865 62.2542L31.5075 62.0332L31.2865 62.2542ZM31.2865 48.8342L31.5076 49.0553L31.5155 49.0468L31.2865 48.8342ZM39.0665 49.1742L38.9337 49.457L38.9372 49.4586L39.0665 49.1742ZM41.2665 50.7942L41.0299 50.9983L41.0319 51.0006L41.2665 50.7942ZM42.5665 53.0342L42.2705 53.1344L42.272 53.1387L42.5665 53.0342ZM42.5665 58.0342L42.272 57.9297L42.2706 57.9339L42.5665 58.0342ZM41.2665 60.2942L41.5011 60.5006L41.5031 60.4983L41.2665 60.2942ZM39.0665 61.9142L39.1958 62.1987L39.1994 62.197L39.0665 61.9142ZM32.8465 60.8142H32.534V61.1266H32.8465V60.8142ZM38.6265 60.1542L38.7752 60.429L38.7768 60.4282L38.6265 60.1542ZM40.5265 58.2942L40.2546 58.1401L40.2538 58.1416L40.5265 58.2942ZM40.5265 52.7942L40.2527 52.9448L40.2558 52.9502L40.5265 52.7942ZM38.6265 50.9342L38.4744 51.2072L38.4797 51.21L38.6265 50.9342ZM32.8465 50.2542V49.9417H32.534V50.2542H32.8465ZM31.9265 62.5142V62.2017C31.753 62.2017 31.6201 62.1458 31.5075 62.0332L31.2865 62.2542L31.0656 62.4751C31.2997 62.7092 31.5934 62.8266 31.9265 62.8266V62.5142ZM31.2865 62.2542L31.5075 62.0332C31.3949 61.9206 31.339 61.7877 31.339 61.6142H31.0265H30.714C30.714 61.9473 30.8315 62.241 31.0656 62.4751L31.2865 62.2542ZM31.0265 61.6142H31.339V49.4742H31.0265H30.714V61.6142H31.0265ZM31.0265 49.4742H31.339C31.339 49.3006 31.3949 49.1677 31.5075 49.0551L31.2865 48.8342L31.0656 48.6132C30.8315 48.8473 30.714 49.141 30.714 49.4742H31.0265ZM31.2865 48.8342L31.5155 49.0468C31.6301 48.9234 31.7606 48.8666 31.9265 48.8666V48.5542V48.2417C31.5858 48.2417 31.2896 48.3716 31.0575 48.6215L31.2865 48.8342ZM31.9265 48.5542V48.8666H35.9465V48.5542V48.2417H31.9265V48.5542ZM35.9465 48.5542V48.8666C37.1111 48.8666 38.1038 49.0672 38.9337 49.457L39.0665 49.1742L39.1994 48.8913C38.2692 48.4544 37.1819 48.2417 35.9465 48.2417V48.5542ZM39.0665 49.1742L38.9372 49.4586C39.7793 49.8414 40.475 50.3551 41.0299 50.9983L41.2665 50.7942L41.5031 50.59C40.8847 49.8732 40.1138 49.3069 39.1958 48.8897L39.0665 49.1742ZM41.2665 50.7942L41.0319 51.0006C41.5918 51.6368 42.004 52.3475 42.2706 53.1344L42.5665 53.0342L42.8625 52.9339C42.569 52.0674 42.1146 51.2848 41.5011 50.5877L41.2665 50.7942ZM42.5665 53.0342L42.272 53.1387C42.554 53.9333 42.694 54.7313 42.694 55.5342H43.0065H43.319C43.319 54.657 43.1657 53.7884 42.861 52.9297L42.5665 53.0342ZM43.0065 55.5342H42.694C42.694 56.337 42.554 57.135 42.272 57.9297L42.5665 58.0342L42.861 58.1387C43.1657 57.2799 43.319 56.4113 43.319 55.5342H43.0065ZM42.5665 58.0342L42.2706 57.9339C42.0038 58.7213 41.5911 59.4396 41.0299 60.09L41.2665 60.2942L41.5031 60.4983C42.1153 59.7887 42.5692 59.0003 42.8625 58.1344L42.5665 58.0342ZM41.2665 60.2942L41.0319 60.0877C40.4762 60.7193 39.7786 61.2345 38.9337 61.6313L39.0665 61.9142L39.1994 62.197C40.1145 61.7672 40.8835 61.2024 41.5011 60.5006L41.2665 60.2942ZM39.0665 61.9142L38.9372 61.6297C38.1064 62.0073 37.1124 62.2017 35.9465 62.2017V62.5142V62.8266C37.1807 62.8266 38.2667 62.621 39.1958 62.1986L39.0665 61.9142ZM35.9465 62.5142V62.2017H31.9265V62.5142V62.8266H35.9465V62.5142ZM32.8465 60.8142V61.1266H35.7265V60.8142V60.5017H32.8465V60.8142ZM35.7265 60.8142V61.1266C36.8876 61.1266 37.9075 60.8984 38.7752 60.429L38.6265 60.1542L38.4778 59.8793C37.7189 60.2899 36.8055 60.5017 35.7265 60.5017V60.8142ZM38.6265 60.1542L38.7768 60.4282C39.6524 59.948 40.3293 59.287 40.7992 58.4467L40.5265 58.2942L40.2538 58.1416C39.8438 58.8747 39.254 59.4537 38.4763 59.8802L38.6265 60.1542ZM40.5265 58.2942L40.7984 58.4482C41.2817 57.5953 41.519 56.621 41.519 55.5342H41.2065H40.894C40.894 56.5274 40.678 57.393 40.2547 58.1401L40.5265 58.2942ZM41.2065 55.5342H41.519C41.519 54.4475 41.2817 53.4788 40.7973 52.6381L40.5265 52.7942L40.2558 52.9502C40.678 53.6829 40.894 54.5408 40.894 55.5342H41.2065ZM40.5265 52.7942L40.8003 52.6436C40.3303 51.7889 39.6522 51.1261 38.7733 50.6583L38.6265 50.9342L38.4797 51.21C39.2542 51.6223 39.8428 52.1994 40.2527 52.9448L40.5265 52.7942ZM38.6265 50.9342L38.7787 50.6612C37.9102 50.1772 36.889 49.9417 35.7265 49.9417V50.2542V50.5666C36.804 50.5666 37.7161 50.7845 38.4744 51.2071L38.6265 50.9342ZM35.7265 50.2542V49.9417H32.8465V50.2542V50.5666H35.7265V50.2542ZM32.8465 50.2542H32.534V60.8142H32.8465H33.159V50.2542H32.8465ZM47.7061 62.3542L47.927 62.1332L47.7061 62.3542ZM47.7061 48.8342L47.9272 49.0553L47.935 49.0468L47.7061 48.8342ZM56.7261 48.8142L56.4964 49.0261L56.5049 49.0353L56.5141 49.0438L56.7261 48.8142ZM56.7261 50.0142L56.5139 49.7844L56.5051 49.7932L56.7261 50.0142ZM49.2661 50.2542V49.9417H48.9536V50.2542H49.2661ZM49.2661 54.6742H48.9536V54.9866H49.2661V54.6742ZM56.0261 54.9342L55.7964 55.1461L55.8049 55.1553L55.8141 55.1638L56.0261 54.9342ZM56.0261 56.1342L55.8139 55.9044L55.8051 55.9132L56.0261 56.1342ZM49.2661 56.3742V56.0617H48.9536V56.3742H49.2661ZM48.9861 62.3542L48.7733 62.125L48.7651 62.1332L48.9861 62.3542ZM48.3461 62.6142V62.3017C48.1725 62.3017 48.0396 62.2458 47.927 62.1332L47.7061 62.3542L47.4851 62.5751C47.7192 62.8092 48.0129 62.9266 48.3461 62.9266V62.6142ZM47.7061 62.3542L47.927 62.1332C47.8144 62.0206 47.7585 61.8877 47.7585 61.7142H47.4461H47.1336C47.1336 62.0473 47.251 62.341 47.4851 62.5751L47.7061 62.3542ZM47.4461 61.7142H47.7585V49.4742H47.4461H47.1336V61.7142H47.4461ZM47.4461 49.4742H47.7585C47.7585 49.3006 47.8144 49.1677 47.927 49.0551L47.7061 48.8342L47.4851 48.6132C47.251 48.8473 47.1336 49.141 47.1336 49.4742H47.4461ZM47.7061 48.8342L47.935 49.0468C48.0496 48.9234 48.1802 48.8666 48.3461 48.8666V48.5542V48.2417C48.0053 48.2417 47.7092 48.3716 47.4771 48.6215L47.7061 48.8342ZM48.3461 48.5542V48.8666H56.1261V48.5542V48.2417H48.3461V48.5542ZM56.1261 48.5542V48.8666C56.2806 48.8666 56.3968 48.9181 56.4964 49.0261L56.7261 48.8142L56.9557 48.6022C56.7354 48.3635 56.4515 48.2417 56.1261 48.2417V48.5542ZM56.7261 48.8142L56.5141 49.0438C56.6221 49.1435 56.6736 49.2596 56.6736 49.4142H56.9861H57.2985C57.2985 49.0887 57.1767 48.8049 56.938 48.5845L56.7261 48.8142ZM56.9861 49.4142H56.6736C56.6736 49.5687 56.6221 49.6849 56.5141 49.7845L56.7261 50.0142L56.938 50.2438C57.1767 50.0235 57.2985 49.7396 57.2985 49.4142H56.9861ZM56.7261 50.0142L56.5051 49.7932C56.4075 49.8908 56.2888 49.9417 56.1261 49.9417V50.2542V50.5666C56.4434 50.5666 56.7246 50.4576 56.947 50.2351L56.7261 50.0142ZM56.1261 50.2542V49.9417H49.2661V50.2542V50.5666H56.1261V50.2542ZM49.2661 50.2542H48.9536V54.6742H49.2661H49.5785V50.2542H49.2661ZM49.2661 54.6742V54.9866H55.4261V54.6742V54.3617H49.2661V54.6742ZM55.4261 54.6742V54.9866C55.5806 54.9866 55.6968 55.0381 55.7964 55.1461L56.0261 54.9342L56.2557 54.7222C56.0354 54.4835 55.7515 54.3617 55.4261 54.3617V54.6742ZM56.0261 54.9342L55.8141 55.1638C55.9221 55.2635 55.9736 55.3796 55.9736 55.5342H56.2861H56.5985C56.5985 55.2087 56.4767 54.9249 56.238 54.7045L56.0261 54.9342ZM56.2861 55.5342H55.9736C55.9736 55.6887 55.9221 55.8049 55.8141 55.9045L56.0261 56.1342L56.238 56.3638C56.4767 56.1435 56.5985 55.8596 56.5985 55.5342H56.2861ZM56.0261 56.1342L55.8051 55.9132C55.7075 56.0108 55.5888 56.0617 55.4261 56.0617V56.3742V56.6866C55.7434 56.6866 56.0246 56.5776 56.247 56.3551L56.0261 56.1342ZM55.4261 56.3742V56.0617H49.2661V56.3742V56.6866H55.4261V56.3742ZM49.2661 56.3742H48.9536V61.7142H49.2661H49.5785V56.3742H49.2661ZM49.2661 61.7142H48.9536C48.9536 61.8801 48.8968 62.0106 48.7734 62.1252L48.9861 62.3542L49.1987 62.5831C49.4486 62.3511 49.5785 62.0549 49.5785 61.7142H49.2661ZM48.9861 62.3542L48.7651 62.1332C48.6525 62.2458 48.5196 62.3017 48.3461 62.3017V62.6142V62.9266C48.6792 62.9266 48.9729 62.8092 49.207 62.5751L48.9861 62.3542Z" fill="white" mask="url(#path-2-outside-1_2015_6825)"/>
<g filter="url(#filter0_d_2015_6825)">
<path d="M76 32.4996H50.9377C49.0393 32.4996 47.5004 30.9607 47.5004 29.0623V4L76 32.4996Z" fill="url(#paint1_linear_2015_6825)"/>
</g>
<defs>
<filter id="filter0_d_2015_6825" x="43.9068" y="0.250153" width="36.3118" height="36.3117" filterUnits="userSpaceOnUse" color-interpolation-filters="sRGB">
<feFlood flood-opacity="0" result="BackgroundImageFix"/>
<feColorMatrix in="SourceAlpha" type="matrix" values="0 0 0 0 0 0 0 0 0 0 0 0 0 0 0 0 0 0 127 0" result="hardAlpha"/>
<feOffset dx="0.312487" dy="0.156244"/>
<feGaussianBlur stdDeviation="1.95305"/>
<feColorMatrix type="matrix" values="0 0 0 0 0 0 0 0 0 0 0 0 0 0 0 0 0 0 0.33 0"/>
<feBlend mode="normal" in2="BackgroundImageFix" result="effect1_dropShadow_2015_6825"/>
<feBlend mode="normal" in="SourceGraphic" in2="effect1_dropShadow_2015_6825" result="shape"/>
</filter>
<linearGradient id="paint0_linear_2015_6825" x1="37.9995" y1="4" x2="37.9995" y2="90.0577" gradientUnits="userSpaceOnUse">
<stop stop-color="#FF7981"/>
<stop offset="1" stop-color="#E85567"/>
</linearGradient>
<linearGradient id="paint1_linear_2015_6825" x1="61.7502" y1="4" x2="61.7502" y2="32.4996" gradientUnits="userSpaceOnUse">
<stop stop-color="#D03954"/>
<stop offset="1" stop-color="#C02A3C"/>
</linearGradient>
</defs>
</svg>
