<svg width="25" height="24" viewBox="0 0 25 24" fill="none" xmlns="http://www.w3.org/2000/svg">
<path d="M13.7227 1C13.7227 1 16.4115 1.24444 19.8336 4.66659C23.2558 8.08874 23.5002 10.7776 23.5002 10.7776" stroke="white" stroke-width="1.5" stroke-linecap="round"/>
<path d="M13.9756 5.32031C13.9756 5.32031 15.1855 5.666 17.0004 7.48087C18.8152 9.29574 19.1609 10.5056 19.1609 10.5056" stroke="white" stroke-width="1.5" stroke-linecap="round"/>
<path d="M1.50801 8.25207C1.4196 10.5842 2.00981 14.5447 5.98265 18.5175C6.94111 19.476 7.89885 20.2376 8.83317 20.8403M3.3795 4.59055C5.08196 2.88809 7.79819 3.11683 8.87912 5.05369L9.67234 6.47501C10.3882 7.75769 10.1008 9.44034 8.97337 10.5678C8.97337 10.5678 7.60582 11.9354 10.0853 14.4149C12.5648 16.8943 13.9324 15.5268 13.9324 15.5268C15.0599 14.3994 16.7425 14.112 18.0252 14.8279L19.4465 15.6211C21.3834 16.702 21.6121 19.4182 19.9097 21.1207C18.8867 22.1437 17.6335 22.9397 16.2481 22.9922C15.2532 23.0299 13.9619 22.9441 12.4998 22.5249" stroke="white" stroke-width="1.5" stroke-linecap="round"/>
</svg>
